G04 #@! TF.GenerationSoftware,KiCad,Pcbnew,(5.1.4)-1*
G04 #@! TF.CreationDate,2019-10-28T00:02:14+02:00*
G04 #@! TF.ProjectId,Macroboard,4d616372-6f62-46f6-9172-642e6b696361,rev?*
G04 #@! TF.SameCoordinates,Original*
G04 #@! TF.FileFunction,Soldermask,Bot*
G04 #@! TF.FilePolarity,Negative*
%FSLAX46Y46*%
G04 Gerber Fmt 4.6, Leading zero omitted, Abs format (unit mm)*
G04 Created by KiCad (PCBNEW (5.1.4)-1) date 2019-10-28 00:02:14*
%MOMM*%
%LPD*%
G04 APERTURE LIST*
%ADD10C,0.100000*%
G04 APERTURE END LIST*
D10*
G36*
X271738380Y-140634776D02*
G01*
X272119093Y-140710504D01*
X272528749Y-140880189D01*
X272897429Y-141126534D01*
X273210966Y-141440071D01*
X273457311Y-141808751D01*
X273626996Y-142218407D01*
X273713500Y-142653296D01*
X273713500Y-143096704D01*
X273626996Y-143531593D01*
X273457311Y-143941249D01*
X273210966Y-144309929D01*
X272897429Y-144623466D01*
X272528749Y-144869811D01*
X272119093Y-145039496D01*
X271738380Y-145115224D01*
X271684205Y-145126000D01*
X271240795Y-145126000D01*
X271186620Y-145115224D01*
X270805907Y-145039496D01*
X270396251Y-144869811D01*
X270027571Y-144623466D01*
X269714034Y-144309929D01*
X269467689Y-143941249D01*
X269298004Y-143531593D01*
X269211500Y-143096704D01*
X269211500Y-142653296D01*
X269298004Y-142218407D01*
X269467689Y-141808751D01*
X269714034Y-141440071D01*
X270027571Y-141126534D01*
X270396251Y-140880189D01*
X270805907Y-140710504D01*
X271186620Y-140634776D01*
X271240795Y-140624000D01*
X271684205Y-140624000D01*
X271738380Y-140634776D01*
X271738380Y-140634776D01*
G37*
G36*
X205063380Y-140634776D02*
G01*
X205444093Y-140710504D01*
X205853749Y-140880189D01*
X206222429Y-141126534D01*
X206535966Y-141440071D01*
X206782311Y-141808751D01*
X206951996Y-142218407D01*
X207038500Y-142653296D01*
X207038500Y-143096704D01*
X206951996Y-143531593D01*
X206782311Y-143941249D01*
X206535966Y-144309929D01*
X206222429Y-144623466D01*
X205853749Y-144869811D01*
X205444093Y-145039496D01*
X205063380Y-145115224D01*
X205009205Y-145126000D01*
X204565795Y-145126000D01*
X204511620Y-145115224D01*
X204130907Y-145039496D01*
X203721251Y-144869811D01*
X203352571Y-144623466D01*
X203039034Y-144309929D01*
X202792689Y-143941249D01*
X202623004Y-143531593D01*
X202536500Y-143096704D01*
X202536500Y-142653296D01*
X202623004Y-142218407D01*
X202792689Y-141808751D01*
X203039034Y-141440071D01*
X203352571Y-141126534D01*
X203721251Y-140880189D01*
X204130907Y-140710504D01*
X204511620Y-140634776D01*
X204565795Y-140624000D01*
X205009205Y-140624000D01*
X205063380Y-140634776D01*
X205063380Y-140634776D01*
G37*
G36*
X237745749Y-143940945D02*
G01*
X237783245Y-143952320D01*
X237817804Y-143970792D01*
X237848097Y-143995653D01*
X237872958Y-144025946D01*
X237891430Y-144060505D01*
X237902805Y-144098001D01*
X237907250Y-144143138D01*
X237907250Y-144781862D01*
X237902805Y-144826999D01*
X237891430Y-144864495D01*
X237872958Y-144899054D01*
X237848097Y-144929347D01*
X237817804Y-144954208D01*
X237783245Y-144972680D01*
X237745749Y-144984055D01*
X237700612Y-144988500D01*
X236961888Y-144988500D01*
X236916751Y-144984055D01*
X236879255Y-144972680D01*
X236844696Y-144954208D01*
X236814403Y-144929347D01*
X236789542Y-144899054D01*
X236771070Y-144864495D01*
X236759695Y-144826999D01*
X236755250Y-144781862D01*
X236755250Y-144143138D01*
X236759695Y-144098001D01*
X236771070Y-144060505D01*
X236789542Y-144025946D01*
X236814403Y-143995653D01*
X236844696Y-143970792D01*
X236879255Y-143952320D01*
X236916751Y-143940945D01*
X236961888Y-143936500D01*
X237700612Y-143936500D01*
X237745749Y-143940945D01*
X237745749Y-143940945D01*
G37*
G36*
X239495749Y-143940945D02*
G01*
X239533245Y-143952320D01*
X239567804Y-143970792D01*
X239598097Y-143995653D01*
X239622958Y-144025946D01*
X239641430Y-144060505D01*
X239652805Y-144098001D01*
X239657250Y-144143138D01*
X239657250Y-144781862D01*
X239652805Y-144826999D01*
X239641430Y-144864495D01*
X239622958Y-144899054D01*
X239598097Y-144929347D01*
X239567804Y-144954208D01*
X239533245Y-144972680D01*
X239495749Y-144984055D01*
X239450612Y-144988500D01*
X238711888Y-144988500D01*
X238666751Y-144984055D01*
X238629255Y-144972680D01*
X238594696Y-144954208D01*
X238564403Y-144929347D01*
X238539542Y-144899054D01*
X238521070Y-144864495D01*
X238509695Y-144826999D01*
X238505250Y-144781862D01*
X238505250Y-144143138D01*
X238509695Y-144098001D01*
X238521070Y-144060505D01*
X238539542Y-144025946D01*
X238564403Y-143995653D01*
X238594696Y-143970792D01*
X238629255Y-143952320D01*
X238666751Y-143940945D01*
X238711888Y-143936500D01*
X239450612Y-143936500D01*
X239495749Y-143940945D01*
X239495749Y-143940945D01*
G37*
G36*
X258464499Y-143940945D02*
G01*
X258501995Y-143952320D01*
X258536554Y-143970792D01*
X258566847Y-143995653D01*
X258591708Y-144025946D01*
X258610180Y-144060505D01*
X258621555Y-144098001D01*
X258626000Y-144143138D01*
X258626000Y-144781862D01*
X258621555Y-144826999D01*
X258610180Y-144864495D01*
X258591708Y-144899054D01*
X258566847Y-144929347D01*
X258536554Y-144954208D01*
X258501995Y-144972680D01*
X258464499Y-144984055D01*
X258419362Y-144988500D01*
X257680638Y-144988500D01*
X257635501Y-144984055D01*
X257598005Y-144972680D01*
X257563446Y-144954208D01*
X257533153Y-144929347D01*
X257508292Y-144899054D01*
X257489820Y-144864495D01*
X257478445Y-144826999D01*
X257474000Y-144781862D01*
X257474000Y-144143138D01*
X257478445Y-144098001D01*
X257489820Y-144060505D01*
X257508292Y-144025946D01*
X257533153Y-143995653D01*
X257563446Y-143970792D01*
X257598005Y-143952320D01*
X257635501Y-143940945D01*
X257680638Y-143936500D01*
X258419362Y-143936500D01*
X258464499Y-143940945D01*
X258464499Y-143940945D01*
G37*
G36*
X256714499Y-143940945D02*
G01*
X256751995Y-143952320D01*
X256786554Y-143970792D01*
X256816847Y-143995653D01*
X256841708Y-144025946D01*
X256860180Y-144060505D01*
X256871555Y-144098001D01*
X256876000Y-144143138D01*
X256876000Y-144781862D01*
X256871555Y-144826999D01*
X256860180Y-144864495D01*
X256841708Y-144899054D01*
X256816847Y-144929347D01*
X256786554Y-144954208D01*
X256751995Y-144972680D01*
X256714499Y-144984055D01*
X256669362Y-144988500D01*
X255930638Y-144988500D01*
X255885501Y-144984055D01*
X255848005Y-144972680D01*
X255813446Y-144954208D01*
X255783153Y-144929347D01*
X255758292Y-144899054D01*
X255739820Y-144864495D01*
X255728445Y-144826999D01*
X255724000Y-144781862D01*
X255724000Y-144143138D01*
X255728445Y-144098001D01*
X255739820Y-144060505D01*
X255758292Y-144025946D01*
X255783153Y-143995653D01*
X255813446Y-143970792D01*
X255848005Y-143952320D01*
X255885501Y-143940945D01*
X255930638Y-143936500D01*
X256669362Y-143936500D01*
X256714499Y-143940945D01*
X256714499Y-143940945D01*
G37*
G36*
X218533249Y-143940945D02*
G01*
X218570745Y-143952320D01*
X218605304Y-143970792D01*
X218635597Y-143995653D01*
X218660458Y-144025946D01*
X218678930Y-144060505D01*
X218690305Y-144098001D01*
X218694750Y-144143138D01*
X218694750Y-144781862D01*
X218690305Y-144826999D01*
X218678930Y-144864495D01*
X218660458Y-144899054D01*
X218635597Y-144929347D01*
X218605304Y-144954208D01*
X218570745Y-144972680D01*
X218533249Y-144984055D01*
X218488112Y-144988500D01*
X217749388Y-144988500D01*
X217704251Y-144984055D01*
X217666755Y-144972680D01*
X217632196Y-144954208D01*
X217601903Y-144929347D01*
X217577042Y-144899054D01*
X217558570Y-144864495D01*
X217547195Y-144826999D01*
X217542750Y-144781862D01*
X217542750Y-144143138D01*
X217547195Y-144098001D01*
X217558570Y-144060505D01*
X217577042Y-144025946D01*
X217601903Y-143995653D01*
X217632196Y-143970792D01*
X217666755Y-143952320D01*
X217704251Y-143940945D01*
X217749388Y-143936500D01*
X218488112Y-143936500D01*
X218533249Y-143940945D01*
X218533249Y-143940945D01*
G37*
G36*
X220283249Y-143940945D02*
G01*
X220320745Y-143952320D01*
X220355304Y-143970792D01*
X220385597Y-143995653D01*
X220410458Y-144025946D01*
X220428930Y-144060505D01*
X220440305Y-144098001D01*
X220444750Y-144143138D01*
X220444750Y-144781862D01*
X220440305Y-144826999D01*
X220428930Y-144864495D01*
X220410458Y-144899054D01*
X220385597Y-144929347D01*
X220355304Y-144954208D01*
X220320745Y-144972680D01*
X220283249Y-144984055D01*
X220238112Y-144988500D01*
X219499388Y-144988500D01*
X219454251Y-144984055D01*
X219416755Y-144972680D01*
X219382196Y-144954208D01*
X219351903Y-144929347D01*
X219327042Y-144899054D01*
X219308570Y-144864495D01*
X219297195Y-144826999D01*
X219292750Y-144781862D01*
X219292750Y-144143138D01*
X219297195Y-144098001D01*
X219308570Y-144060505D01*
X219327042Y-144025946D01*
X219351903Y-143995653D01*
X219382196Y-143970792D01*
X219416755Y-143952320D01*
X219454251Y-143940945D01*
X219499388Y-143936500D01*
X220238112Y-143936500D01*
X220283249Y-143940945D01*
X220283249Y-143940945D01*
G37*
G36*
X259448500Y-141814750D02*
G01*
X257441500Y-141814750D01*
X257441500Y-139807750D01*
X259448500Y-139807750D01*
X259448500Y-141814750D01*
X259448500Y-141814750D01*
G37*
G36*
X236981425Y-139813238D02*
G01*
X237147710Y-139846313D01*
X237330336Y-139921959D01*
X237494694Y-140031780D01*
X237634470Y-140171556D01*
X237744291Y-140335914D01*
X237819937Y-140518540D01*
X237853012Y-140684825D01*
X237858500Y-140712413D01*
X237858500Y-140910087D01*
X237853012Y-140937675D01*
X237819937Y-141103960D01*
X237744291Y-141286586D01*
X237634470Y-141450944D01*
X237494694Y-141590720D01*
X237330336Y-141700541D01*
X237147710Y-141776187D01*
X236983996Y-141808751D01*
X236953837Y-141814750D01*
X236756163Y-141814750D01*
X236726004Y-141808751D01*
X236562290Y-141776187D01*
X236379664Y-141700541D01*
X236215306Y-141590720D01*
X236075530Y-141450944D01*
X235965709Y-141286586D01*
X235890063Y-141103960D01*
X235856988Y-140937675D01*
X235851500Y-140910087D01*
X235851500Y-140712413D01*
X235856988Y-140684825D01*
X235890063Y-140518540D01*
X235965709Y-140335914D01*
X236075530Y-140171556D01*
X236215306Y-140031780D01*
X236379664Y-139921959D01*
X236562290Y-139846313D01*
X236728575Y-139813238D01*
X236756163Y-139807750D01*
X236953837Y-139807750D01*
X236981425Y-139813238D01*
X236981425Y-139813238D01*
G37*
G36*
X240398500Y-141814750D02*
G01*
X238391500Y-141814750D01*
X238391500Y-139807750D01*
X240398500Y-139807750D01*
X240398500Y-141814750D01*
X240398500Y-141814750D01*
G37*
G36*
X256031425Y-139813238D02*
G01*
X256197710Y-139846313D01*
X256380336Y-139921959D01*
X256544694Y-140031780D01*
X256684470Y-140171556D01*
X256794291Y-140335914D01*
X256869937Y-140518540D01*
X256903012Y-140684825D01*
X256908500Y-140712413D01*
X256908500Y-140910087D01*
X256903012Y-140937675D01*
X256869937Y-141103960D01*
X256794291Y-141286586D01*
X256684470Y-141450944D01*
X256544694Y-141590720D01*
X256380336Y-141700541D01*
X256197710Y-141776187D01*
X256033996Y-141808751D01*
X256003837Y-141814750D01*
X255806163Y-141814750D01*
X255776004Y-141808751D01*
X255612290Y-141776187D01*
X255429664Y-141700541D01*
X255265306Y-141590720D01*
X255125530Y-141450944D01*
X255015709Y-141286586D01*
X254940063Y-141103960D01*
X254906988Y-140937675D01*
X254901500Y-140910087D01*
X254901500Y-140712413D01*
X254906988Y-140684825D01*
X254940063Y-140518540D01*
X255015709Y-140335914D01*
X255125530Y-140171556D01*
X255265306Y-140031780D01*
X255429664Y-139921959D01*
X255612290Y-139846313D01*
X255778575Y-139813238D01*
X255806163Y-139807750D01*
X256003837Y-139807750D01*
X256031425Y-139813238D01*
X256031425Y-139813238D01*
G37*
G36*
X217931425Y-139813238D02*
G01*
X218097710Y-139846313D01*
X218280336Y-139921959D01*
X218444694Y-140031780D01*
X218584470Y-140171556D01*
X218694291Y-140335914D01*
X218769937Y-140518540D01*
X218803012Y-140684825D01*
X218808500Y-140712413D01*
X218808500Y-140910087D01*
X218803012Y-140937675D01*
X218769937Y-141103960D01*
X218694291Y-141286586D01*
X218584470Y-141450944D01*
X218444694Y-141590720D01*
X218280336Y-141700541D01*
X218097710Y-141776187D01*
X217933996Y-141808751D01*
X217903837Y-141814750D01*
X217706163Y-141814750D01*
X217676004Y-141808751D01*
X217512290Y-141776187D01*
X217329664Y-141700541D01*
X217165306Y-141590720D01*
X217025530Y-141450944D01*
X216915709Y-141286586D01*
X216840063Y-141103960D01*
X216806988Y-140937675D01*
X216801500Y-140910087D01*
X216801500Y-140712413D01*
X216806988Y-140684825D01*
X216840063Y-140518540D01*
X216915709Y-140335914D01*
X217025530Y-140171556D01*
X217165306Y-140031780D01*
X217329664Y-139921959D01*
X217512290Y-139846313D01*
X217678575Y-139813238D01*
X217706163Y-139807750D01*
X217903837Y-139807750D01*
X217931425Y-139813238D01*
X217931425Y-139813238D01*
G37*
G36*
X221348500Y-141814750D02*
G01*
X219341500Y-141814750D01*
X219341500Y-139807750D01*
X221348500Y-139807750D01*
X221348500Y-141814750D01*
X221348500Y-141814750D01*
G37*
G36*
X265763500Y-137882250D02*
G01*
X264461500Y-137882250D01*
X264461500Y-136880250D01*
X265763500Y-136880250D01*
X265763500Y-137882250D01*
X265763500Y-137882250D01*
G37*
G36*
X227663500Y-137882250D02*
G01*
X226361500Y-137882250D01*
X226361500Y-136880250D01*
X227663500Y-136880250D01*
X227663500Y-137882250D01*
X227663500Y-137882250D01*
G37*
G36*
X246713500Y-137882250D02*
G01*
X245411500Y-137882250D01*
X245411500Y-136880250D01*
X246713500Y-136880250D01*
X246713500Y-137882250D01*
X246713500Y-137882250D01*
G37*
G36*
X257771474Y-133764934D02*
G01*
X257989474Y-133855233D01*
X258143623Y-133919083D01*
X258478548Y-134142873D01*
X258763377Y-134427702D01*
X258987167Y-134762627D01*
X259019562Y-134840836D01*
X259141316Y-135134776D01*
X259219900Y-135529844D01*
X259219900Y-135932656D01*
X259141316Y-136327724D01*
X259090451Y-136450522D01*
X258987167Y-136699873D01*
X258763377Y-137034798D01*
X258478548Y-137319627D01*
X258143623Y-137543417D01*
X257989474Y-137607267D01*
X257771474Y-137697566D01*
X257376406Y-137776150D01*
X256973594Y-137776150D01*
X256578526Y-137697566D01*
X256360526Y-137607267D01*
X256206377Y-137543417D01*
X255871452Y-137319627D01*
X255586623Y-137034798D01*
X255362833Y-136699873D01*
X255259549Y-136450522D01*
X255208684Y-136327724D01*
X255130100Y-135932656D01*
X255130100Y-135529844D01*
X255208684Y-135134776D01*
X255330438Y-134840836D01*
X255362833Y-134762627D01*
X255586623Y-134427702D01*
X255871452Y-134142873D01*
X256206377Y-133919083D01*
X256360526Y-133855233D01*
X256578526Y-133764934D01*
X256973594Y-133686350D01*
X257376406Y-133686350D01*
X257771474Y-133764934D01*
X257771474Y-133764934D01*
G37*
G36*
X219671474Y-133764934D02*
G01*
X219889474Y-133855233D01*
X220043623Y-133919083D01*
X220378548Y-134142873D01*
X220663377Y-134427702D01*
X220887167Y-134762627D01*
X220919562Y-134840836D01*
X221041316Y-135134776D01*
X221119900Y-135529844D01*
X221119900Y-135932656D01*
X221041316Y-136327724D01*
X220990451Y-136450522D01*
X220887167Y-136699873D01*
X220663377Y-137034798D01*
X220378548Y-137319627D01*
X220043623Y-137543417D01*
X219889474Y-137607267D01*
X219671474Y-137697566D01*
X219276406Y-137776150D01*
X218873594Y-137776150D01*
X218478526Y-137697566D01*
X218260526Y-137607267D01*
X218106377Y-137543417D01*
X217771452Y-137319627D01*
X217486623Y-137034798D01*
X217262833Y-136699873D01*
X217159549Y-136450522D01*
X217108684Y-136327724D01*
X217030100Y-135932656D01*
X217030100Y-135529844D01*
X217108684Y-135134776D01*
X217230438Y-134840836D01*
X217262833Y-134762627D01*
X217486623Y-134427702D01*
X217771452Y-134142873D01*
X218106377Y-133919083D01*
X218260526Y-133855233D01*
X218478526Y-133764934D01*
X218873594Y-133686350D01*
X219276406Y-133686350D01*
X219671474Y-133764934D01*
X219671474Y-133764934D01*
G37*
G36*
X238721474Y-133764934D02*
G01*
X238939474Y-133855233D01*
X239093623Y-133919083D01*
X239428548Y-134142873D01*
X239713377Y-134427702D01*
X239937167Y-134762627D01*
X239969562Y-134840836D01*
X240091316Y-135134776D01*
X240169900Y-135529844D01*
X240169900Y-135932656D01*
X240091316Y-136327724D01*
X240040451Y-136450522D01*
X239937167Y-136699873D01*
X239713377Y-137034798D01*
X239428548Y-137319627D01*
X239093623Y-137543417D01*
X238939474Y-137607267D01*
X238721474Y-137697566D01*
X238326406Y-137776150D01*
X237923594Y-137776150D01*
X237528526Y-137697566D01*
X237310526Y-137607267D01*
X237156377Y-137543417D01*
X236821452Y-137319627D01*
X236536623Y-137034798D01*
X236312833Y-136699873D01*
X236209549Y-136450522D01*
X236158684Y-136327724D01*
X236080100Y-135932656D01*
X236080100Y-135529844D01*
X236158684Y-135134776D01*
X236280438Y-134840836D01*
X236312833Y-134762627D01*
X236536623Y-134427702D01*
X236821452Y-134142873D01*
X237156377Y-133919083D01*
X237310526Y-133855233D01*
X237528526Y-133764934D01*
X237923594Y-133686350D01*
X238326406Y-133686350D01*
X238721474Y-133764934D01*
X238721474Y-133764934D01*
G37*
G36*
X252365104Y-134840835D02*
G01*
X252533626Y-134910639D01*
X252685291Y-135011978D01*
X252814272Y-135140959D01*
X252915611Y-135292624D01*
X252985415Y-135461146D01*
X253021000Y-135640047D01*
X253021000Y-135822453D01*
X252985415Y-136001354D01*
X252915611Y-136169876D01*
X252814272Y-136321541D01*
X252685291Y-136450522D01*
X252533626Y-136551861D01*
X252365104Y-136621665D01*
X252186203Y-136657250D01*
X252003797Y-136657250D01*
X251824896Y-136621665D01*
X251656374Y-136551861D01*
X251504709Y-136450522D01*
X251375728Y-136321541D01*
X251274389Y-136169876D01*
X251204585Y-136001354D01*
X251169000Y-135822453D01*
X251169000Y-135640047D01*
X251204585Y-135461146D01*
X251274389Y-135292624D01*
X251375728Y-135140959D01*
X251504709Y-135011978D01*
X251656374Y-134910639D01*
X251824896Y-134840835D01*
X252003797Y-134805250D01*
X252186203Y-134805250D01*
X252365104Y-134840835D01*
X252365104Y-134840835D01*
G37*
G36*
X224425104Y-134840835D02*
G01*
X224593626Y-134910639D01*
X224745291Y-135011978D01*
X224874272Y-135140959D01*
X224975611Y-135292624D01*
X225045415Y-135461146D01*
X225081000Y-135640047D01*
X225081000Y-135822453D01*
X225045415Y-136001354D01*
X224975611Y-136169876D01*
X224874272Y-136321541D01*
X224745291Y-136450522D01*
X224593626Y-136551861D01*
X224425104Y-136621665D01*
X224246203Y-136657250D01*
X224063797Y-136657250D01*
X223884896Y-136621665D01*
X223716374Y-136551861D01*
X223564709Y-136450522D01*
X223435728Y-136321541D01*
X223334389Y-136169876D01*
X223264585Y-136001354D01*
X223229000Y-135822453D01*
X223229000Y-135640047D01*
X223264585Y-135461146D01*
X223334389Y-135292624D01*
X223435728Y-135140959D01*
X223564709Y-135011978D01*
X223716374Y-134910639D01*
X223884896Y-134840835D01*
X224063797Y-134805250D01*
X224246203Y-134805250D01*
X224425104Y-134840835D01*
X224425104Y-134840835D01*
G37*
G36*
X214265104Y-134840835D02*
G01*
X214433626Y-134910639D01*
X214585291Y-135011978D01*
X214714272Y-135140959D01*
X214815611Y-135292624D01*
X214885415Y-135461146D01*
X214921000Y-135640047D01*
X214921000Y-135822453D01*
X214885415Y-136001354D01*
X214815611Y-136169876D01*
X214714272Y-136321541D01*
X214585291Y-136450522D01*
X214433626Y-136551861D01*
X214265104Y-136621665D01*
X214086203Y-136657250D01*
X213903797Y-136657250D01*
X213724896Y-136621665D01*
X213556374Y-136551861D01*
X213404709Y-136450522D01*
X213275728Y-136321541D01*
X213174389Y-136169876D01*
X213104585Y-136001354D01*
X213069000Y-135822453D01*
X213069000Y-135640047D01*
X213104585Y-135461146D01*
X213174389Y-135292624D01*
X213275728Y-135140959D01*
X213404709Y-135011978D01*
X213556374Y-134910639D01*
X213724896Y-134840835D01*
X213903797Y-134805250D01*
X214086203Y-134805250D01*
X214265104Y-134840835D01*
X214265104Y-134840835D01*
G37*
G36*
X233315104Y-134840835D02*
G01*
X233483626Y-134910639D01*
X233635291Y-135011978D01*
X233764272Y-135140959D01*
X233865611Y-135292624D01*
X233935415Y-135461146D01*
X233971000Y-135640047D01*
X233971000Y-135822453D01*
X233935415Y-136001354D01*
X233865611Y-136169876D01*
X233764272Y-136321541D01*
X233635291Y-136450522D01*
X233483626Y-136551861D01*
X233315104Y-136621665D01*
X233136203Y-136657250D01*
X232953797Y-136657250D01*
X232774896Y-136621665D01*
X232606374Y-136551861D01*
X232454709Y-136450522D01*
X232325728Y-136321541D01*
X232224389Y-136169876D01*
X232154585Y-136001354D01*
X232119000Y-135822453D01*
X232119000Y-135640047D01*
X232154585Y-135461146D01*
X232224389Y-135292624D01*
X232325728Y-135140959D01*
X232454709Y-135011978D01*
X232606374Y-134910639D01*
X232774896Y-134840835D01*
X232953797Y-134805250D01*
X233136203Y-134805250D01*
X233315104Y-134840835D01*
X233315104Y-134840835D01*
G37*
G36*
X243475104Y-134840835D02*
G01*
X243643626Y-134910639D01*
X243795291Y-135011978D01*
X243924272Y-135140959D01*
X244025611Y-135292624D01*
X244095415Y-135461146D01*
X244131000Y-135640047D01*
X244131000Y-135822453D01*
X244095415Y-136001354D01*
X244025611Y-136169876D01*
X243924272Y-136321541D01*
X243795291Y-136450522D01*
X243643626Y-136551861D01*
X243475104Y-136621665D01*
X243296203Y-136657250D01*
X243113797Y-136657250D01*
X242934896Y-136621665D01*
X242766374Y-136551861D01*
X242614709Y-136450522D01*
X242485728Y-136321541D01*
X242384389Y-136169876D01*
X242314585Y-136001354D01*
X242279000Y-135822453D01*
X242279000Y-135640047D01*
X242314585Y-135461146D01*
X242384389Y-135292624D01*
X242485728Y-135140959D01*
X242614709Y-135011978D01*
X242766374Y-134910639D01*
X242934896Y-134840835D01*
X243113797Y-134805250D01*
X243296203Y-134805250D01*
X243475104Y-134840835D01*
X243475104Y-134840835D01*
G37*
G36*
X262525104Y-134840835D02*
G01*
X262693626Y-134910639D01*
X262845291Y-135011978D01*
X262974272Y-135140959D01*
X263075611Y-135292624D01*
X263145415Y-135461146D01*
X263181000Y-135640047D01*
X263181000Y-135822453D01*
X263145415Y-136001354D01*
X263075611Y-136169876D01*
X262974272Y-136321541D01*
X262845291Y-136450522D01*
X262693626Y-136551861D01*
X262525104Y-136621665D01*
X262346203Y-136657250D01*
X262163797Y-136657250D01*
X261984896Y-136621665D01*
X261816374Y-136551861D01*
X261664709Y-136450522D01*
X261535728Y-136321541D01*
X261434389Y-136169876D01*
X261364585Y-136001354D01*
X261329000Y-135822453D01*
X261329000Y-135640047D01*
X261364585Y-135461146D01*
X261434389Y-135292624D01*
X261535728Y-135140959D01*
X261664709Y-135011978D01*
X261816374Y-134910639D01*
X261984896Y-134840835D01*
X262163797Y-134805250D01*
X262346203Y-134805250D01*
X262525104Y-134840835D01*
X262525104Y-134840835D01*
G37*
G36*
X265763500Y-134582250D02*
G01*
X264461500Y-134582250D01*
X264461500Y-133580250D01*
X265763500Y-133580250D01*
X265763500Y-134582250D01*
X265763500Y-134582250D01*
G37*
G36*
X227663500Y-134582250D02*
G01*
X226361500Y-134582250D01*
X226361500Y-133580250D01*
X227663500Y-133580250D01*
X227663500Y-134582250D01*
X227663500Y-134582250D01*
G37*
G36*
X246713500Y-134582250D02*
G01*
X245411500Y-134582250D01*
X245411500Y-133580250D01*
X246713500Y-133580250D01*
X246713500Y-134582250D01*
X246713500Y-134582250D01*
G37*
G36*
X253556560Y-132030314D02*
G01*
X253708027Y-132060443D01*
X253922045Y-132149092D01*
X253922046Y-132149093D01*
X254114654Y-132277789D01*
X254278461Y-132441596D01*
X254364258Y-132570001D01*
X254407158Y-132634205D01*
X254495807Y-132848223D01*
X254541000Y-133075424D01*
X254541000Y-133307076D01*
X254495807Y-133534277D01*
X254407158Y-133748295D01*
X254407157Y-133748296D01*
X254278461Y-133940904D01*
X254114654Y-134104711D01*
X254057540Y-134142873D01*
X253922045Y-134233408D01*
X253708027Y-134322057D01*
X253556560Y-134352186D01*
X253480827Y-134367250D01*
X253249173Y-134367250D01*
X253173440Y-134352186D01*
X253021973Y-134322057D01*
X252807955Y-134233408D01*
X252672460Y-134142873D01*
X252615346Y-134104711D01*
X252451539Y-133940904D01*
X252322843Y-133748296D01*
X252322842Y-133748295D01*
X252234193Y-133534277D01*
X252189000Y-133307076D01*
X252189000Y-133075424D01*
X252234193Y-132848223D01*
X252322842Y-132634205D01*
X252365742Y-132570001D01*
X252451539Y-132441596D01*
X252615346Y-132277789D01*
X252807954Y-132149093D01*
X252807955Y-132149092D01*
X253021973Y-132060443D01*
X253173440Y-132030314D01*
X253249173Y-132015250D01*
X253480827Y-132015250D01*
X253556560Y-132030314D01*
X253556560Y-132030314D01*
G37*
G36*
X215456560Y-132030314D02*
G01*
X215608027Y-132060443D01*
X215822045Y-132149092D01*
X215822046Y-132149093D01*
X216014654Y-132277789D01*
X216178461Y-132441596D01*
X216264258Y-132570001D01*
X216307158Y-132634205D01*
X216395807Y-132848223D01*
X216441000Y-133075424D01*
X216441000Y-133307076D01*
X216395807Y-133534277D01*
X216307158Y-133748295D01*
X216307157Y-133748296D01*
X216178461Y-133940904D01*
X216014654Y-134104711D01*
X215957540Y-134142873D01*
X215822045Y-134233408D01*
X215608027Y-134322057D01*
X215456560Y-134352186D01*
X215380827Y-134367250D01*
X215149173Y-134367250D01*
X215073440Y-134352186D01*
X214921973Y-134322057D01*
X214707955Y-134233408D01*
X214572460Y-134142873D01*
X214515346Y-134104711D01*
X214351539Y-133940904D01*
X214222843Y-133748296D01*
X214222842Y-133748295D01*
X214134193Y-133534277D01*
X214089000Y-133307076D01*
X214089000Y-133075424D01*
X214134193Y-132848223D01*
X214222842Y-132634205D01*
X214265742Y-132570001D01*
X214351539Y-132441596D01*
X214515346Y-132277789D01*
X214707954Y-132149093D01*
X214707955Y-132149092D01*
X214921973Y-132060443D01*
X215073440Y-132030314D01*
X215149173Y-132015250D01*
X215380827Y-132015250D01*
X215456560Y-132030314D01*
X215456560Y-132030314D01*
G37*
G36*
X234506560Y-132030314D02*
G01*
X234658027Y-132060443D01*
X234872045Y-132149092D01*
X234872046Y-132149093D01*
X235064654Y-132277789D01*
X235228461Y-132441596D01*
X235314258Y-132570001D01*
X235357158Y-132634205D01*
X235445807Y-132848223D01*
X235491000Y-133075424D01*
X235491000Y-133307076D01*
X235445807Y-133534277D01*
X235357158Y-133748295D01*
X235357157Y-133748296D01*
X235228461Y-133940904D01*
X235064654Y-134104711D01*
X235007540Y-134142873D01*
X234872045Y-134233408D01*
X234658027Y-134322057D01*
X234506560Y-134352186D01*
X234430827Y-134367250D01*
X234199173Y-134367250D01*
X234123440Y-134352186D01*
X233971973Y-134322057D01*
X233757955Y-134233408D01*
X233622460Y-134142873D01*
X233565346Y-134104711D01*
X233401539Y-133940904D01*
X233272843Y-133748296D01*
X233272842Y-133748295D01*
X233184193Y-133534277D01*
X233139000Y-133307076D01*
X233139000Y-133075424D01*
X233184193Y-132848223D01*
X233272842Y-132634205D01*
X233315742Y-132570001D01*
X233401539Y-132441596D01*
X233565346Y-132277789D01*
X233757954Y-132149093D01*
X233757955Y-132149092D01*
X233971973Y-132060443D01*
X234123440Y-132030314D01*
X234199173Y-132015250D01*
X234430827Y-132015250D01*
X234506560Y-132030314D01*
X234506560Y-132030314D01*
G37*
G36*
X221806560Y-129490314D02*
G01*
X221958027Y-129520443D01*
X222172045Y-129609092D01*
X222172046Y-129609093D01*
X222364654Y-129737789D01*
X222528461Y-129901596D01*
X222614258Y-130030001D01*
X222657158Y-130094205D01*
X222745807Y-130308223D01*
X222791000Y-130535424D01*
X222791000Y-130767076D01*
X222745807Y-130994277D01*
X222657158Y-131208295D01*
X222657157Y-131208296D01*
X222528461Y-131400904D01*
X222364654Y-131564711D01*
X222236249Y-131650508D01*
X222172045Y-131693408D01*
X221958027Y-131782057D01*
X221806560Y-131812186D01*
X221730827Y-131827250D01*
X221499173Y-131827250D01*
X221423440Y-131812186D01*
X221271973Y-131782057D01*
X221057955Y-131693408D01*
X220993751Y-131650508D01*
X220865346Y-131564711D01*
X220701539Y-131400904D01*
X220572843Y-131208296D01*
X220572842Y-131208295D01*
X220484193Y-130994277D01*
X220439000Y-130767076D01*
X220439000Y-130535424D01*
X220484193Y-130308223D01*
X220572842Y-130094205D01*
X220615742Y-130030001D01*
X220701539Y-129901596D01*
X220865346Y-129737789D01*
X221057954Y-129609093D01*
X221057955Y-129609092D01*
X221271973Y-129520443D01*
X221423440Y-129490314D01*
X221499173Y-129475250D01*
X221730827Y-129475250D01*
X221806560Y-129490314D01*
X221806560Y-129490314D01*
G37*
G36*
X240856560Y-129490314D02*
G01*
X241008027Y-129520443D01*
X241222045Y-129609092D01*
X241222046Y-129609093D01*
X241414654Y-129737789D01*
X241578461Y-129901596D01*
X241664258Y-130030001D01*
X241707158Y-130094205D01*
X241795807Y-130308223D01*
X241841000Y-130535424D01*
X241841000Y-130767076D01*
X241795807Y-130994277D01*
X241707158Y-131208295D01*
X241707157Y-131208296D01*
X241578461Y-131400904D01*
X241414654Y-131564711D01*
X241286249Y-131650508D01*
X241222045Y-131693408D01*
X241008027Y-131782057D01*
X240856560Y-131812186D01*
X240780827Y-131827250D01*
X240549173Y-131827250D01*
X240473440Y-131812186D01*
X240321973Y-131782057D01*
X240107955Y-131693408D01*
X240043751Y-131650508D01*
X239915346Y-131564711D01*
X239751539Y-131400904D01*
X239622843Y-131208296D01*
X239622842Y-131208295D01*
X239534193Y-130994277D01*
X239489000Y-130767076D01*
X239489000Y-130535424D01*
X239534193Y-130308223D01*
X239622842Y-130094205D01*
X239665742Y-130030001D01*
X239751539Y-129901596D01*
X239915346Y-129737789D01*
X240107954Y-129609093D01*
X240107955Y-129609092D01*
X240321973Y-129520443D01*
X240473440Y-129490314D01*
X240549173Y-129475250D01*
X240780827Y-129475250D01*
X240856560Y-129490314D01*
X240856560Y-129490314D01*
G37*
G36*
X259906560Y-129490314D02*
G01*
X260058027Y-129520443D01*
X260272045Y-129609092D01*
X260272046Y-129609093D01*
X260464654Y-129737789D01*
X260628461Y-129901596D01*
X260714258Y-130030001D01*
X260757158Y-130094205D01*
X260845807Y-130308223D01*
X260891000Y-130535424D01*
X260891000Y-130767076D01*
X260845807Y-130994277D01*
X260757158Y-131208295D01*
X260757157Y-131208296D01*
X260628461Y-131400904D01*
X260464654Y-131564711D01*
X260336249Y-131650508D01*
X260272045Y-131693408D01*
X260058027Y-131782057D01*
X259906560Y-131812186D01*
X259830827Y-131827250D01*
X259599173Y-131827250D01*
X259523440Y-131812186D01*
X259371973Y-131782057D01*
X259157955Y-131693408D01*
X259093751Y-131650508D01*
X258965346Y-131564711D01*
X258801539Y-131400904D01*
X258672843Y-131208296D01*
X258672842Y-131208295D01*
X258584193Y-130994277D01*
X258539000Y-130767076D01*
X258539000Y-130535424D01*
X258584193Y-130308223D01*
X258672842Y-130094205D01*
X258715742Y-130030001D01*
X258801539Y-129901596D01*
X258965346Y-129737789D01*
X259157954Y-129609093D01*
X259157955Y-129609092D01*
X259371973Y-129520443D01*
X259523440Y-129490314D01*
X259599173Y-129475250D01*
X259830827Y-129475250D01*
X259906560Y-129490314D01*
X259906560Y-129490314D01*
G37*
G36*
X237745749Y-124890945D02*
G01*
X237783245Y-124902320D01*
X237817804Y-124920792D01*
X237848097Y-124945653D01*
X237872958Y-124975946D01*
X237891430Y-125010505D01*
X237902805Y-125048001D01*
X237907250Y-125093138D01*
X237907250Y-125731862D01*
X237902805Y-125776999D01*
X237891430Y-125814495D01*
X237872958Y-125849054D01*
X237848097Y-125879347D01*
X237817804Y-125904208D01*
X237783245Y-125922680D01*
X237745749Y-125934055D01*
X237700612Y-125938500D01*
X236961888Y-125938500D01*
X236916751Y-125934055D01*
X236879255Y-125922680D01*
X236844696Y-125904208D01*
X236814403Y-125879347D01*
X236789542Y-125849054D01*
X236771070Y-125814495D01*
X236759695Y-125776999D01*
X236755250Y-125731862D01*
X236755250Y-125093138D01*
X236759695Y-125048001D01*
X236771070Y-125010505D01*
X236789542Y-124975946D01*
X236814403Y-124945653D01*
X236844696Y-124920792D01*
X236879255Y-124902320D01*
X236916751Y-124890945D01*
X236961888Y-124886500D01*
X237700612Y-124886500D01*
X237745749Y-124890945D01*
X237745749Y-124890945D01*
G37*
G36*
X239495749Y-124890945D02*
G01*
X239533245Y-124902320D01*
X239567804Y-124920792D01*
X239598097Y-124945653D01*
X239622958Y-124975946D01*
X239641430Y-125010505D01*
X239652805Y-125048001D01*
X239657250Y-125093138D01*
X239657250Y-125731862D01*
X239652805Y-125776999D01*
X239641430Y-125814495D01*
X239622958Y-125849054D01*
X239598097Y-125879347D01*
X239567804Y-125904208D01*
X239533245Y-125922680D01*
X239495749Y-125934055D01*
X239450612Y-125938500D01*
X238711888Y-125938500D01*
X238666751Y-125934055D01*
X238629255Y-125922680D01*
X238594696Y-125904208D01*
X238564403Y-125879347D01*
X238539542Y-125849054D01*
X238521070Y-125814495D01*
X238509695Y-125776999D01*
X238505250Y-125731862D01*
X238505250Y-125093138D01*
X238509695Y-125048001D01*
X238521070Y-125010505D01*
X238539542Y-124975946D01*
X238564403Y-124945653D01*
X238594696Y-124920792D01*
X238629255Y-124902320D01*
X238666751Y-124890945D01*
X238711888Y-124886500D01*
X239450612Y-124886500D01*
X239495749Y-124890945D01*
X239495749Y-124890945D01*
G37*
G36*
X220445749Y-124890945D02*
G01*
X220483245Y-124902320D01*
X220517804Y-124920792D01*
X220548097Y-124945653D01*
X220572958Y-124975946D01*
X220591430Y-125010505D01*
X220602805Y-125048001D01*
X220607250Y-125093138D01*
X220607250Y-125731862D01*
X220602805Y-125776999D01*
X220591430Y-125814495D01*
X220572958Y-125849054D01*
X220548097Y-125879347D01*
X220517804Y-125904208D01*
X220483245Y-125922680D01*
X220445749Y-125934055D01*
X220400612Y-125938500D01*
X219661888Y-125938500D01*
X219616751Y-125934055D01*
X219579255Y-125922680D01*
X219544696Y-125904208D01*
X219514403Y-125879347D01*
X219489542Y-125849054D01*
X219471070Y-125814495D01*
X219459695Y-125776999D01*
X219455250Y-125731862D01*
X219455250Y-125093138D01*
X219459695Y-125048001D01*
X219471070Y-125010505D01*
X219489542Y-124975946D01*
X219514403Y-124945653D01*
X219544696Y-124920792D01*
X219579255Y-124902320D01*
X219616751Y-124890945D01*
X219661888Y-124886500D01*
X220400612Y-124886500D01*
X220445749Y-124890945D01*
X220445749Y-124890945D01*
G37*
G36*
X218695749Y-124890945D02*
G01*
X218733245Y-124902320D01*
X218767804Y-124920792D01*
X218798097Y-124945653D01*
X218822958Y-124975946D01*
X218841430Y-125010505D01*
X218852805Y-125048001D01*
X218857250Y-125093138D01*
X218857250Y-125731862D01*
X218852805Y-125776999D01*
X218841430Y-125814495D01*
X218822958Y-125849054D01*
X218798097Y-125879347D01*
X218767804Y-125904208D01*
X218733245Y-125922680D01*
X218695749Y-125934055D01*
X218650612Y-125938500D01*
X217911888Y-125938500D01*
X217866751Y-125934055D01*
X217829255Y-125922680D01*
X217794696Y-125904208D01*
X217764403Y-125879347D01*
X217739542Y-125849054D01*
X217721070Y-125814495D01*
X217709695Y-125776999D01*
X217705250Y-125731862D01*
X217705250Y-125093138D01*
X217709695Y-125048001D01*
X217721070Y-125010505D01*
X217739542Y-124975946D01*
X217764403Y-124945653D01*
X217794696Y-124920792D01*
X217829255Y-124902320D01*
X217866751Y-124890945D01*
X217911888Y-124886500D01*
X218650612Y-124886500D01*
X218695749Y-124890945D01*
X218695749Y-124890945D01*
G37*
G36*
X258545749Y-124890945D02*
G01*
X258583245Y-124902320D01*
X258617804Y-124920792D01*
X258648097Y-124945653D01*
X258672958Y-124975946D01*
X258691430Y-125010505D01*
X258702805Y-125048001D01*
X258707250Y-125093138D01*
X258707250Y-125731862D01*
X258702805Y-125776999D01*
X258691430Y-125814495D01*
X258672958Y-125849054D01*
X258648097Y-125879347D01*
X258617804Y-125904208D01*
X258583245Y-125922680D01*
X258545749Y-125934055D01*
X258500612Y-125938500D01*
X257761888Y-125938500D01*
X257716751Y-125934055D01*
X257679255Y-125922680D01*
X257644696Y-125904208D01*
X257614403Y-125879347D01*
X257589542Y-125849054D01*
X257571070Y-125814495D01*
X257559695Y-125776999D01*
X257555250Y-125731862D01*
X257555250Y-125093138D01*
X257559695Y-125048001D01*
X257571070Y-125010505D01*
X257589542Y-124975946D01*
X257614403Y-124945653D01*
X257644696Y-124920792D01*
X257679255Y-124902320D01*
X257716751Y-124890945D01*
X257761888Y-124886500D01*
X258500612Y-124886500D01*
X258545749Y-124890945D01*
X258545749Y-124890945D01*
G37*
G36*
X256795749Y-124890945D02*
G01*
X256833245Y-124902320D01*
X256867804Y-124920792D01*
X256898097Y-124945653D01*
X256922958Y-124975946D01*
X256941430Y-125010505D01*
X256952805Y-125048001D01*
X256957250Y-125093138D01*
X256957250Y-125731862D01*
X256952805Y-125776999D01*
X256941430Y-125814495D01*
X256922958Y-125849054D01*
X256898097Y-125879347D01*
X256867804Y-125904208D01*
X256833245Y-125922680D01*
X256795749Y-125934055D01*
X256750612Y-125938500D01*
X256011888Y-125938500D01*
X255966751Y-125934055D01*
X255929255Y-125922680D01*
X255894696Y-125904208D01*
X255864403Y-125879347D01*
X255839542Y-125849054D01*
X255821070Y-125814495D01*
X255809695Y-125776999D01*
X255805250Y-125731862D01*
X255805250Y-125093138D01*
X255809695Y-125048001D01*
X255821070Y-125010505D01*
X255839542Y-124975946D01*
X255864403Y-124945653D01*
X255894696Y-124920792D01*
X255929255Y-124902320D01*
X255966751Y-124890945D01*
X256011888Y-124886500D01*
X256750612Y-124886500D01*
X256795749Y-124890945D01*
X256795749Y-124890945D01*
G37*
G36*
X256031425Y-120763238D02*
G01*
X256197710Y-120796313D01*
X256380336Y-120871959D01*
X256544694Y-120981780D01*
X256684470Y-121121556D01*
X256794291Y-121285914D01*
X256869937Y-121468540D01*
X256908500Y-121662414D01*
X256908500Y-121860086D01*
X256869937Y-122053960D01*
X256794291Y-122236586D01*
X256684470Y-122400944D01*
X256544694Y-122540720D01*
X256380336Y-122650541D01*
X256197710Y-122726187D01*
X256031425Y-122759262D01*
X256003837Y-122764750D01*
X255806163Y-122764750D01*
X255778575Y-122759262D01*
X255612290Y-122726187D01*
X255429664Y-122650541D01*
X255265306Y-122540720D01*
X255125530Y-122400944D01*
X255015709Y-122236586D01*
X254940063Y-122053960D01*
X254901500Y-121860086D01*
X254901500Y-121662414D01*
X254940063Y-121468540D01*
X255015709Y-121285914D01*
X255125530Y-121121556D01*
X255265306Y-120981780D01*
X255429664Y-120871959D01*
X255612290Y-120796313D01*
X255778575Y-120763238D01*
X255806163Y-120757750D01*
X256003837Y-120757750D01*
X256031425Y-120763238D01*
X256031425Y-120763238D01*
G37*
G36*
X240398500Y-122764750D02*
G01*
X238391500Y-122764750D01*
X238391500Y-120757750D01*
X240398500Y-120757750D01*
X240398500Y-122764750D01*
X240398500Y-122764750D01*
G37*
G36*
X236981425Y-120763238D02*
G01*
X237147710Y-120796313D01*
X237330336Y-120871959D01*
X237494694Y-120981780D01*
X237634470Y-121121556D01*
X237744291Y-121285914D01*
X237819937Y-121468540D01*
X237858500Y-121662414D01*
X237858500Y-121860086D01*
X237819937Y-122053960D01*
X237744291Y-122236586D01*
X237634470Y-122400944D01*
X237494694Y-122540720D01*
X237330336Y-122650541D01*
X237147710Y-122726187D01*
X236981425Y-122759262D01*
X236953837Y-122764750D01*
X236756163Y-122764750D01*
X236728575Y-122759262D01*
X236562290Y-122726187D01*
X236379664Y-122650541D01*
X236215306Y-122540720D01*
X236075530Y-122400944D01*
X235965709Y-122236586D01*
X235890063Y-122053960D01*
X235851500Y-121860086D01*
X235851500Y-121662414D01*
X235890063Y-121468540D01*
X235965709Y-121285914D01*
X236075530Y-121121556D01*
X236215306Y-120981780D01*
X236379664Y-120871959D01*
X236562290Y-120796313D01*
X236728575Y-120763238D01*
X236756163Y-120757750D01*
X236953837Y-120757750D01*
X236981425Y-120763238D01*
X236981425Y-120763238D01*
G37*
G36*
X259448500Y-122764750D02*
G01*
X257441500Y-122764750D01*
X257441500Y-120757750D01*
X259448500Y-120757750D01*
X259448500Y-122764750D01*
X259448500Y-122764750D01*
G37*
G36*
X217931425Y-120763238D02*
G01*
X218097710Y-120796313D01*
X218280336Y-120871959D01*
X218444694Y-120981780D01*
X218584470Y-121121556D01*
X218694291Y-121285914D01*
X218769937Y-121468540D01*
X218808500Y-121662414D01*
X218808500Y-121860086D01*
X218769937Y-122053960D01*
X218694291Y-122236586D01*
X218584470Y-122400944D01*
X218444694Y-122540720D01*
X218280336Y-122650541D01*
X218097710Y-122726187D01*
X217931425Y-122759262D01*
X217903837Y-122764750D01*
X217706163Y-122764750D01*
X217678575Y-122759262D01*
X217512290Y-122726187D01*
X217329664Y-122650541D01*
X217165306Y-122540720D01*
X217025530Y-122400944D01*
X216915709Y-122236586D01*
X216840063Y-122053960D01*
X216801500Y-121860086D01*
X216801500Y-121662414D01*
X216840063Y-121468540D01*
X216915709Y-121285914D01*
X217025530Y-121121556D01*
X217165306Y-120981780D01*
X217329664Y-120871959D01*
X217512290Y-120796313D01*
X217678575Y-120763238D01*
X217706163Y-120757750D01*
X217903837Y-120757750D01*
X217931425Y-120763238D01*
X217931425Y-120763238D01*
G37*
G36*
X221348500Y-122764750D02*
G01*
X219341500Y-122764750D01*
X219341500Y-120757750D01*
X221348500Y-120757750D01*
X221348500Y-122764750D01*
X221348500Y-122764750D01*
G37*
G36*
X227663500Y-118832250D02*
G01*
X226361500Y-118832250D01*
X226361500Y-117830250D01*
X227663500Y-117830250D01*
X227663500Y-118832250D01*
X227663500Y-118832250D01*
G37*
G36*
X265763500Y-118832250D02*
G01*
X264461500Y-118832250D01*
X264461500Y-117830250D01*
X265763500Y-117830250D01*
X265763500Y-118832250D01*
X265763500Y-118832250D01*
G37*
G36*
X246713500Y-118832250D02*
G01*
X245411500Y-118832250D01*
X245411500Y-117830250D01*
X246713500Y-117830250D01*
X246713500Y-118832250D01*
X246713500Y-118832250D01*
G37*
G36*
X219671474Y-114714934D02*
G01*
X219889474Y-114805233D01*
X220043623Y-114869083D01*
X220378548Y-115092873D01*
X220663377Y-115377702D01*
X220887167Y-115712627D01*
X220919562Y-115790836D01*
X221041316Y-116084776D01*
X221119900Y-116479844D01*
X221119900Y-116882656D01*
X221041316Y-117277724D01*
X220990451Y-117400522D01*
X220887167Y-117649873D01*
X220663377Y-117984798D01*
X220378548Y-118269627D01*
X220043623Y-118493417D01*
X219889474Y-118557267D01*
X219671474Y-118647566D01*
X219276406Y-118726150D01*
X218873594Y-118726150D01*
X218478526Y-118647566D01*
X218260526Y-118557267D01*
X218106377Y-118493417D01*
X217771452Y-118269627D01*
X217486623Y-117984798D01*
X217262833Y-117649873D01*
X217159549Y-117400522D01*
X217108684Y-117277724D01*
X217030100Y-116882656D01*
X217030100Y-116479844D01*
X217108684Y-116084776D01*
X217230438Y-115790836D01*
X217262833Y-115712627D01*
X217486623Y-115377702D01*
X217771452Y-115092873D01*
X218106377Y-114869083D01*
X218260526Y-114805233D01*
X218478526Y-114714934D01*
X218873594Y-114636350D01*
X219276406Y-114636350D01*
X219671474Y-114714934D01*
X219671474Y-114714934D01*
G37*
G36*
X238721474Y-114714934D02*
G01*
X238939474Y-114805233D01*
X239093623Y-114869083D01*
X239428548Y-115092873D01*
X239713377Y-115377702D01*
X239937167Y-115712627D01*
X239969562Y-115790836D01*
X240091316Y-116084776D01*
X240169900Y-116479844D01*
X240169900Y-116882656D01*
X240091316Y-117277724D01*
X240040451Y-117400522D01*
X239937167Y-117649873D01*
X239713377Y-117984798D01*
X239428548Y-118269627D01*
X239093623Y-118493417D01*
X238939474Y-118557267D01*
X238721474Y-118647566D01*
X238326406Y-118726150D01*
X237923594Y-118726150D01*
X237528526Y-118647566D01*
X237310526Y-118557267D01*
X237156377Y-118493417D01*
X236821452Y-118269627D01*
X236536623Y-117984798D01*
X236312833Y-117649873D01*
X236209549Y-117400522D01*
X236158684Y-117277724D01*
X236080100Y-116882656D01*
X236080100Y-116479844D01*
X236158684Y-116084776D01*
X236280438Y-115790836D01*
X236312833Y-115712627D01*
X236536623Y-115377702D01*
X236821452Y-115092873D01*
X237156377Y-114869083D01*
X237310526Y-114805233D01*
X237528526Y-114714934D01*
X237923594Y-114636350D01*
X238326406Y-114636350D01*
X238721474Y-114714934D01*
X238721474Y-114714934D01*
G37*
G36*
X257771474Y-114714934D02*
G01*
X257989474Y-114805233D01*
X258143623Y-114869083D01*
X258478548Y-115092873D01*
X258763377Y-115377702D01*
X258987167Y-115712627D01*
X259019562Y-115790836D01*
X259141316Y-116084776D01*
X259219900Y-116479844D01*
X259219900Y-116882656D01*
X259141316Y-117277724D01*
X259090451Y-117400522D01*
X258987167Y-117649873D01*
X258763377Y-117984798D01*
X258478548Y-118269627D01*
X258143623Y-118493417D01*
X257989474Y-118557267D01*
X257771474Y-118647566D01*
X257376406Y-118726150D01*
X256973594Y-118726150D01*
X256578526Y-118647566D01*
X256360526Y-118557267D01*
X256206377Y-118493417D01*
X255871452Y-118269627D01*
X255586623Y-117984798D01*
X255362833Y-117649873D01*
X255259549Y-117400522D01*
X255208684Y-117277724D01*
X255130100Y-116882656D01*
X255130100Y-116479844D01*
X255208684Y-116084776D01*
X255330438Y-115790836D01*
X255362833Y-115712627D01*
X255586623Y-115377702D01*
X255871452Y-115092873D01*
X256206377Y-114869083D01*
X256360526Y-114805233D01*
X256578526Y-114714934D01*
X256973594Y-114636350D01*
X257376406Y-114636350D01*
X257771474Y-114714934D01*
X257771474Y-114714934D01*
G37*
G36*
X214265104Y-115790835D02*
G01*
X214433626Y-115860639D01*
X214585291Y-115961978D01*
X214714272Y-116090959D01*
X214815611Y-116242624D01*
X214885415Y-116411146D01*
X214921000Y-116590047D01*
X214921000Y-116772453D01*
X214885415Y-116951354D01*
X214815611Y-117119876D01*
X214714272Y-117271541D01*
X214585291Y-117400522D01*
X214433626Y-117501861D01*
X214265104Y-117571665D01*
X214086203Y-117607250D01*
X213903797Y-117607250D01*
X213724896Y-117571665D01*
X213556374Y-117501861D01*
X213404709Y-117400522D01*
X213275728Y-117271541D01*
X213174389Y-117119876D01*
X213104585Y-116951354D01*
X213069000Y-116772453D01*
X213069000Y-116590047D01*
X213104585Y-116411146D01*
X213174389Y-116242624D01*
X213275728Y-116090959D01*
X213404709Y-115961978D01*
X213556374Y-115860639D01*
X213724896Y-115790835D01*
X213903797Y-115755250D01*
X214086203Y-115755250D01*
X214265104Y-115790835D01*
X214265104Y-115790835D01*
G37*
G36*
X224425104Y-115790835D02*
G01*
X224593626Y-115860639D01*
X224745291Y-115961978D01*
X224874272Y-116090959D01*
X224975611Y-116242624D01*
X225045415Y-116411146D01*
X225081000Y-116590047D01*
X225081000Y-116772453D01*
X225045415Y-116951354D01*
X224975611Y-117119876D01*
X224874272Y-117271541D01*
X224745291Y-117400522D01*
X224593626Y-117501861D01*
X224425104Y-117571665D01*
X224246203Y-117607250D01*
X224063797Y-117607250D01*
X223884896Y-117571665D01*
X223716374Y-117501861D01*
X223564709Y-117400522D01*
X223435728Y-117271541D01*
X223334389Y-117119876D01*
X223264585Y-116951354D01*
X223229000Y-116772453D01*
X223229000Y-116590047D01*
X223264585Y-116411146D01*
X223334389Y-116242624D01*
X223435728Y-116090959D01*
X223564709Y-115961978D01*
X223716374Y-115860639D01*
X223884896Y-115790835D01*
X224063797Y-115755250D01*
X224246203Y-115755250D01*
X224425104Y-115790835D01*
X224425104Y-115790835D01*
G37*
G36*
X233315104Y-115790835D02*
G01*
X233483626Y-115860639D01*
X233635291Y-115961978D01*
X233764272Y-116090959D01*
X233865611Y-116242624D01*
X233935415Y-116411146D01*
X233971000Y-116590047D01*
X233971000Y-116772453D01*
X233935415Y-116951354D01*
X233865611Y-117119876D01*
X233764272Y-117271541D01*
X233635291Y-117400522D01*
X233483626Y-117501861D01*
X233315104Y-117571665D01*
X233136203Y-117607250D01*
X232953797Y-117607250D01*
X232774896Y-117571665D01*
X232606374Y-117501861D01*
X232454709Y-117400522D01*
X232325728Y-117271541D01*
X232224389Y-117119876D01*
X232154585Y-116951354D01*
X232119000Y-116772453D01*
X232119000Y-116590047D01*
X232154585Y-116411146D01*
X232224389Y-116242624D01*
X232325728Y-116090959D01*
X232454709Y-115961978D01*
X232606374Y-115860639D01*
X232774896Y-115790835D01*
X232953797Y-115755250D01*
X233136203Y-115755250D01*
X233315104Y-115790835D01*
X233315104Y-115790835D01*
G37*
G36*
X243475104Y-115790835D02*
G01*
X243643626Y-115860639D01*
X243795291Y-115961978D01*
X243924272Y-116090959D01*
X244025611Y-116242624D01*
X244095415Y-116411146D01*
X244131000Y-116590047D01*
X244131000Y-116772453D01*
X244095415Y-116951354D01*
X244025611Y-117119876D01*
X243924272Y-117271541D01*
X243795291Y-117400522D01*
X243643626Y-117501861D01*
X243475104Y-117571665D01*
X243296203Y-117607250D01*
X243113797Y-117607250D01*
X242934896Y-117571665D01*
X242766374Y-117501861D01*
X242614709Y-117400522D01*
X242485728Y-117271541D01*
X242384389Y-117119876D01*
X242314585Y-116951354D01*
X242279000Y-116772453D01*
X242279000Y-116590047D01*
X242314585Y-116411146D01*
X242384389Y-116242624D01*
X242485728Y-116090959D01*
X242614709Y-115961978D01*
X242766374Y-115860639D01*
X242934896Y-115790835D01*
X243113797Y-115755250D01*
X243296203Y-115755250D01*
X243475104Y-115790835D01*
X243475104Y-115790835D01*
G37*
G36*
X262525104Y-115790835D02*
G01*
X262693626Y-115860639D01*
X262845291Y-115961978D01*
X262974272Y-116090959D01*
X263075611Y-116242624D01*
X263145415Y-116411146D01*
X263181000Y-116590047D01*
X263181000Y-116772453D01*
X263145415Y-116951354D01*
X263075611Y-117119876D01*
X262974272Y-117271541D01*
X262845291Y-117400522D01*
X262693626Y-117501861D01*
X262525104Y-117571665D01*
X262346203Y-117607250D01*
X262163797Y-117607250D01*
X261984896Y-117571665D01*
X261816374Y-117501861D01*
X261664709Y-117400522D01*
X261535728Y-117271541D01*
X261434389Y-117119876D01*
X261364585Y-116951354D01*
X261329000Y-116772453D01*
X261329000Y-116590047D01*
X261364585Y-116411146D01*
X261434389Y-116242624D01*
X261535728Y-116090959D01*
X261664709Y-115961978D01*
X261816374Y-115860639D01*
X261984896Y-115790835D01*
X262163797Y-115755250D01*
X262346203Y-115755250D01*
X262525104Y-115790835D01*
X262525104Y-115790835D01*
G37*
G36*
X252365104Y-115790835D02*
G01*
X252533626Y-115860639D01*
X252685291Y-115961978D01*
X252814272Y-116090959D01*
X252915611Y-116242624D01*
X252985415Y-116411146D01*
X253021000Y-116590047D01*
X253021000Y-116772453D01*
X252985415Y-116951354D01*
X252915611Y-117119876D01*
X252814272Y-117271541D01*
X252685291Y-117400522D01*
X252533626Y-117501861D01*
X252365104Y-117571665D01*
X252186203Y-117607250D01*
X252003797Y-117607250D01*
X251824896Y-117571665D01*
X251656374Y-117501861D01*
X251504709Y-117400522D01*
X251375728Y-117271541D01*
X251274389Y-117119876D01*
X251204585Y-116951354D01*
X251169000Y-116772453D01*
X251169000Y-116590047D01*
X251204585Y-116411146D01*
X251274389Y-116242624D01*
X251375728Y-116090959D01*
X251504709Y-115961978D01*
X251656374Y-115860639D01*
X251824896Y-115790835D01*
X252003797Y-115755250D01*
X252186203Y-115755250D01*
X252365104Y-115790835D01*
X252365104Y-115790835D01*
G37*
G36*
X265763500Y-115532250D02*
G01*
X264461500Y-115532250D01*
X264461500Y-114530250D01*
X265763500Y-114530250D01*
X265763500Y-115532250D01*
X265763500Y-115532250D01*
G37*
G36*
X246713500Y-115532250D02*
G01*
X245411500Y-115532250D01*
X245411500Y-114530250D01*
X246713500Y-114530250D01*
X246713500Y-115532250D01*
X246713500Y-115532250D01*
G37*
G36*
X227663500Y-115532250D02*
G01*
X226361500Y-115532250D01*
X226361500Y-114530250D01*
X227663500Y-114530250D01*
X227663500Y-115532250D01*
X227663500Y-115532250D01*
G37*
G36*
X215456560Y-112980314D02*
G01*
X215608027Y-113010443D01*
X215822045Y-113099092D01*
X215822046Y-113099093D01*
X216014654Y-113227789D01*
X216178461Y-113391596D01*
X216264258Y-113520001D01*
X216307158Y-113584205D01*
X216395807Y-113798223D01*
X216441000Y-114025424D01*
X216441000Y-114257076D01*
X216395807Y-114484277D01*
X216307158Y-114698295D01*
X216307157Y-114698296D01*
X216178461Y-114890904D01*
X216014654Y-115054711D01*
X215957540Y-115092873D01*
X215822045Y-115183408D01*
X215608027Y-115272057D01*
X215456560Y-115302186D01*
X215380827Y-115317250D01*
X215149173Y-115317250D01*
X215073440Y-115302186D01*
X214921973Y-115272057D01*
X214707955Y-115183408D01*
X214572460Y-115092873D01*
X214515346Y-115054711D01*
X214351539Y-114890904D01*
X214222843Y-114698296D01*
X214222842Y-114698295D01*
X214134193Y-114484277D01*
X214089000Y-114257076D01*
X214089000Y-114025424D01*
X214134193Y-113798223D01*
X214222842Y-113584205D01*
X214265742Y-113520001D01*
X214351539Y-113391596D01*
X214515346Y-113227789D01*
X214707954Y-113099093D01*
X214707955Y-113099092D01*
X214921973Y-113010443D01*
X215073440Y-112980314D01*
X215149173Y-112965250D01*
X215380827Y-112965250D01*
X215456560Y-112980314D01*
X215456560Y-112980314D01*
G37*
G36*
X253556560Y-112980314D02*
G01*
X253708027Y-113010443D01*
X253922045Y-113099092D01*
X253922046Y-113099093D01*
X254114654Y-113227789D01*
X254278461Y-113391596D01*
X254364258Y-113520001D01*
X254407158Y-113584205D01*
X254495807Y-113798223D01*
X254541000Y-114025424D01*
X254541000Y-114257076D01*
X254495807Y-114484277D01*
X254407158Y-114698295D01*
X254407157Y-114698296D01*
X254278461Y-114890904D01*
X254114654Y-115054711D01*
X254057540Y-115092873D01*
X253922045Y-115183408D01*
X253708027Y-115272057D01*
X253556560Y-115302186D01*
X253480827Y-115317250D01*
X253249173Y-115317250D01*
X253173440Y-115302186D01*
X253021973Y-115272057D01*
X252807955Y-115183408D01*
X252672460Y-115092873D01*
X252615346Y-115054711D01*
X252451539Y-114890904D01*
X252322843Y-114698296D01*
X252322842Y-114698295D01*
X252234193Y-114484277D01*
X252189000Y-114257076D01*
X252189000Y-114025424D01*
X252234193Y-113798223D01*
X252322842Y-113584205D01*
X252365742Y-113520001D01*
X252451539Y-113391596D01*
X252615346Y-113227789D01*
X252807954Y-113099093D01*
X252807955Y-113099092D01*
X253021973Y-113010443D01*
X253173440Y-112980314D01*
X253249173Y-112965250D01*
X253480827Y-112965250D01*
X253556560Y-112980314D01*
X253556560Y-112980314D01*
G37*
G36*
X234506560Y-112980314D02*
G01*
X234658027Y-113010443D01*
X234872045Y-113099092D01*
X234872046Y-113099093D01*
X235064654Y-113227789D01*
X235228461Y-113391596D01*
X235314258Y-113520001D01*
X235357158Y-113584205D01*
X235445807Y-113798223D01*
X235491000Y-114025424D01*
X235491000Y-114257076D01*
X235445807Y-114484277D01*
X235357158Y-114698295D01*
X235357157Y-114698296D01*
X235228461Y-114890904D01*
X235064654Y-115054711D01*
X235007540Y-115092873D01*
X234872045Y-115183408D01*
X234658027Y-115272057D01*
X234506560Y-115302186D01*
X234430827Y-115317250D01*
X234199173Y-115317250D01*
X234123440Y-115302186D01*
X233971973Y-115272057D01*
X233757955Y-115183408D01*
X233622460Y-115092873D01*
X233565346Y-115054711D01*
X233401539Y-114890904D01*
X233272843Y-114698296D01*
X233272842Y-114698295D01*
X233184193Y-114484277D01*
X233139000Y-114257076D01*
X233139000Y-114025424D01*
X233184193Y-113798223D01*
X233272842Y-113584205D01*
X233315742Y-113520001D01*
X233401539Y-113391596D01*
X233565346Y-113227789D01*
X233757954Y-113099093D01*
X233757955Y-113099092D01*
X233971973Y-113010443D01*
X234123440Y-112980314D01*
X234199173Y-112965250D01*
X234430827Y-112965250D01*
X234506560Y-112980314D01*
X234506560Y-112980314D01*
G37*
G36*
X259906560Y-110440314D02*
G01*
X260058027Y-110470443D01*
X260272045Y-110559092D01*
X260272046Y-110559093D01*
X260464654Y-110687789D01*
X260628461Y-110851596D01*
X260714258Y-110980001D01*
X260757158Y-111044205D01*
X260845807Y-111258223D01*
X260891000Y-111485424D01*
X260891000Y-111717076D01*
X260845807Y-111944277D01*
X260757158Y-112158295D01*
X260757157Y-112158296D01*
X260628461Y-112350904D01*
X260464654Y-112514711D01*
X260336249Y-112600508D01*
X260272045Y-112643408D01*
X260058027Y-112732057D01*
X259906560Y-112762186D01*
X259830827Y-112777250D01*
X259599173Y-112777250D01*
X259523440Y-112762186D01*
X259371973Y-112732057D01*
X259157955Y-112643408D01*
X259093751Y-112600508D01*
X258965346Y-112514711D01*
X258801539Y-112350904D01*
X258672843Y-112158296D01*
X258672842Y-112158295D01*
X258584193Y-111944277D01*
X258539000Y-111717076D01*
X258539000Y-111485424D01*
X258584193Y-111258223D01*
X258672842Y-111044205D01*
X258715742Y-110980001D01*
X258801539Y-110851596D01*
X258965346Y-110687789D01*
X259157954Y-110559093D01*
X259157955Y-110559092D01*
X259371973Y-110470443D01*
X259523440Y-110440314D01*
X259599173Y-110425250D01*
X259830827Y-110425250D01*
X259906560Y-110440314D01*
X259906560Y-110440314D01*
G37*
G36*
X240856560Y-110440314D02*
G01*
X241008027Y-110470443D01*
X241222045Y-110559092D01*
X241222046Y-110559093D01*
X241414654Y-110687789D01*
X241578461Y-110851596D01*
X241664258Y-110980001D01*
X241707158Y-111044205D01*
X241795807Y-111258223D01*
X241841000Y-111485424D01*
X241841000Y-111717076D01*
X241795807Y-111944277D01*
X241707158Y-112158295D01*
X241707157Y-112158296D01*
X241578461Y-112350904D01*
X241414654Y-112514711D01*
X241286249Y-112600508D01*
X241222045Y-112643408D01*
X241008027Y-112732057D01*
X240856560Y-112762186D01*
X240780827Y-112777250D01*
X240549173Y-112777250D01*
X240473440Y-112762186D01*
X240321973Y-112732057D01*
X240107955Y-112643408D01*
X240043751Y-112600508D01*
X239915346Y-112514711D01*
X239751539Y-112350904D01*
X239622843Y-112158296D01*
X239622842Y-112158295D01*
X239534193Y-111944277D01*
X239489000Y-111717076D01*
X239489000Y-111485424D01*
X239534193Y-111258223D01*
X239622842Y-111044205D01*
X239665742Y-110980001D01*
X239751539Y-110851596D01*
X239915346Y-110687789D01*
X240107954Y-110559093D01*
X240107955Y-110559092D01*
X240321973Y-110470443D01*
X240473440Y-110440314D01*
X240549173Y-110425250D01*
X240780827Y-110425250D01*
X240856560Y-110440314D01*
X240856560Y-110440314D01*
G37*
G36*
X221806560Y-110440314D02*
G01*
X221958027Y-110470443D01*
X222172045Y-110559092D01*
X222172046Y-110559093D01*
X222364654Y-110687789D01*
X222528461Y-110851596D01*
X222614258Y-110980001D01*
X222657158Y-111044205D01*
X222745807Y-111258223D01*
X222791000Y-111485424D01*
X222791000Y-111717076D01*
X222745807Y-111944277D01*
X222657158Y-112158295D01*
X222657157Y-112158296D01*
X222528461Y-112350904D01*
X222364654Y-112514711D01*
X222236249Y-112600508D01*
X222172045Y-112643408D01*
X221958027Y-112732057D01*
X221806560Y-112762186D01*
X221730827Y-112777250D01*
X221499173Y-112777250D01*
X221423440Y-112762186D01*
X221271973Y-112732057D01*
X221057955Y-112643408D01*
X220993751Y-112600508D01*
X220865346Y-112514711D01*
X220701539Y-112350904D01*
X220572843Y-112158296D01*
X220572842Y-112158295D01*
X220484193Y-111944277D01*
X220439000Y-111717076D01*
X220439000Y-111485424D01*
X220484193Y-111258223D01*
X220572842Y-111044205D01*
X220615742Y-110980001D01*
X220701539Y-110851596D01*
X220865346Y-110687789D01*
X221057954Y-110559093D01*
X221057955Y-110559092D01*
X221271973Y-110470443D01*
X221423440Y-110440314D01*
X221499173Y-110425250D01*
X221730827Y-110425250D01*
X221806560Y-110440314D01*
X221806560Y-110440314D01*
G37*
G36*
X218614499Y-105840945D02*
G01*
X218651995Y-105852320D01*
X218686554Y-105870792D01*
X218716847Y-105895653D01*
X218741708Y-105925946D01*
X218760180Y-105960505D01*
X218771555Y-105998001D01*
X218776000Y-106043138D01*
X218776000Y-106681862D01*
X218771555Y-106726999D01*
X218760180Y-106764495D01*
X218741708Y-106799054D01*
X218716847Y-106829347D01*
X218686554Y-106854208D01*
X218651995Y-106872680D01*
X218614499Y-106884055D01*
X218569362Y-106888500D01*
X217830638Y-106888500D01*
X217785501Y-106884055D01*
X217748005Y-106872680D01*
X217713446Y-106854208D01*
X217683153Y-106829347D01*
X217658292Y-106799054D01*
X217639820Y-106764495D01*
X217628445Y-106726999D01*
X217624000Y-106681862D01*
X217624000Y-106043138D01*
X217628445Y-105998001D01*
X217639820Y-105960505D01*
X217658292Y-105925946D01*
X217683153Y-105895653D01*
X217713446Y-105870792D01*
X217748005Y-105852320D01*
X217785501Y-105840945D01*
X217830638Y-105836500D01*
X218569362Y-105836500D01*
X218614499Y-105840945D01*
X218614499Y-105840945D01*
G37*
G36*
X258545749Y-105840945D02*
G01*
X258583245Y-105852320D01*
X258617804Y-105870792D01*
X258648097Y-105895653D01*
X258672958Y-105925946D01*
X258691430Y-105960505D01*
X258702805Y-105998001D01*
X258707250Y-106043138D01*
X258707250Y-106681862D01*
X258702805Y-106726999D01*
X258691430Y-106764495D01*
X258672958Y-106799054D01*
X258648097Y-106829347D01*
X258617804Y-106854208D01*
X258583245Y-106872680D01*
X258545749Y-106884055D01*
X258500612Y-106888500D01*
X257761888Y-106888500D01*
X257716751Y-106884055D01*
X257679255Y-106872680D01*
X257644696Y-106854208D01*
X257614403Y-106829347D01*
X257589542Y-106799054D01*
X257571070Y-106764495D01*
X257559695Y-106726999D01*
X257555250Y-106681862D01*
X257555250Y-106043138D01*
X257559695Y-105998001D01*
X257571070Y-105960505D01*
X257589542Y-105925946D01*
X257614403Y-105895653D01*
X257644696Y-105870792D01*
X257679255Y-105852320D01*
X257716751Y-105840945D01*
X257761888Y-105836500D01*
X258500612Y-105836500D01*
X258545749Y-105840945D01*
X258545749Y-105840945D01*
G37*
G36*
X256795749Y-105840945D02*
G01*
X256833245Y-105852320D01*
X256867804Y-105870792D01*
X256898097Y-105895653D01*
X256922958Y-105925946D01*
X256941430Y-105960505D01*
X256952805Y-105998001D01*
X256957250Y-106043138D01*
X256957250Y-106681862D01*
X256952805Y-106726999D01*
X256941430Y-106764495D01*
X256922958Y-106799054D01*
X256898097Y-106829347D01*
X256867804Y-106854208D01*
X256833245Y-106872680D01*
X256795749Y-106884055D01*
X256750612Y-106888500D01*
X256011888Y-106888500D01*
X255966751Y-106884055D01*
X255929255Y-106872680D01*
X255894696Y-106854208D01*
X255864403Y-106829347D01*
X255839542Y-106799054D01*
X255821070Y-106764495D01*
X255809695Y-106726999D01*
X255805250Y-106681862D01*
X255805250Y-106043138D01*
X255809695Y-105998001D01*
X255821070Y-105960505D01*
X255839542Y-105925946D01*
X255864403Y-105895653D01*
X255894696Y-105870792D01*
X255929255Y-105852320D01*
X255966751Y-105840945D01*
X256011888Y-105836500D01*
X256750612Y-105836500D01*
X256795749Y-105840945D01*
X256795749Y-105840945D01*
G37*
G36*
X238620749Y-105840945D02*
G01*
X238658245Y-105852320D01*
X238692804Y-105870792D01*
X238723097Y-105895653D01*
X238747958Y-105925946D01*
X238766430Y-105960505D01*
X238777805Y-105998001D01*
X238782250Y-106043138D01*
X238782250Y-106681862D01*
X238777805Y-106726999D01*
X238766430Y-106764495D01*
X238747958Y-106799054D01*
X238723097Y-106829347D01*
X238692804Y-106854208D01*
X238658245Y-106872680D01*
X238620749Y-106884055D01*
X238575612Y-106888500D01*
X237836888Y-106888500D01*
X237791751Y-106884055D01*
X237754255Y-106872680D01*
X237719696Y-106854208D01*
X237689403Y-106829347D01*
X237664542Y-106799054D01*
X237646070Y-106764495D01*
X237634695Y-106726999D01*
X237630250Y-106681862D01*
X237630250Y-106043138D01*
X237634695Y-105998001D01*
X237646070Y-105960505D01*
X237664542Y-105925946D01*
X237689403Y-105895653D01*
X237719696Y-105870792D01*
X237754255Y-105852320D01*
X237791751Y-105840945D01*
X237836888Y-105836500D01*
X238575612Y-105836500D01*
X238620749Y-105840945D01*
X238620749Y-105840945D01*
G37*
G36*
X236870749Y-105840945D02*
G01*
X236908245Y-105852320D01*
X236942804Y-105870792D01*
X236973097Y-105895653D01*
X236997958Y-105925946D01*
X237016430Y-105960505D01*
X237027805Y-105998001D01*
X237032250Y-106043138D01*
X237032250Y-106681862D01*
X237027805Y-106726999D01*
X237016430Y-106764495D01*
X236997958Y-106799054D01*
X236973097Y-106829347D01*
X236942804Y-106854208D01*
X236908245Y-106872680D01*
X236870749Y-106884055D01*
X236825612Y-106888500D01*
X236086888Y-106888500D01*
X236041751Y-106884055D01*
X236004255Y-106872680D01*
X235969696Y-106854208D01*
X235939403Y-106829347D01*
X235914542Y-106799054D01*
X235896070Y-106764495D01*
X235884695Y-106726999D01*
X235880250Y-106681862D01*
X235880250Y-106043138D01*
X235884695Y-105998001D01*
X235896070Y-105960505D01*
X235914542Y-105925946D01*
X235939403Y-105895653D01*
X235969696Y-105870792D01*
X236004255Y-105852320D01*
X236041751Y-105840945D01*
X236086888Y-105836500D01*
X236825612Y-105836500D01*
X236870749Y-105840945D01*
X236870749Y-105840945D01*
G37*
G36*
X220364499Y-105840945D02*
G01*
X220401995Y-105852320D01*
X220436554Y-105870792D01*
X220466847Y-105895653D01*
X220491708Y-105925946D01*
X220510180Y-105960505D01*
X220521555Y-105998001D01*
X220526000Y-106043138D01*
X220526000Y-106681862D01*
X220521555Y-106726999D01*
X220510180Y-106764495D01*
X220491708Y-106799054D01*
X220466847Y-106829347D01*
X220436554Y-106854208D01*
X220401995Y-106872680D01*
X220364499Y-106884055D01*
X220319362Y-106888500D01*
X219580638Y-106888500D01*
X219535501Y-106884055D01*
X219498005Y-106872680D01*
X219463446Y-106854208D01*
X219433153Y-106829347D01*
X219408292Y-106799054D01*
X219389820Y-106764495D01*
X219378445Y-106726999D01*
X219374000Y-106681862D01*
X219374000Y-106043138D01*
X219378445Y-105998001D01*
X219389820Y-105960505D01*
X219408292Y-105925946D01*
X219433153Y-105895653D01*
X219463446Y-105870792D01*
X219498005Y-105852320D01*
X219535501Y-105840945D01*
X219580638Y-105836500D01*
X220319362Y-105836500D01*
X220364499Y-105840945D01*
X220364499Y-105840945D01*
G37*
G36*
X259448500Y-103714750D02*
G01*
X257441500Y-103714750D01*
X257441500Y-101707750D01*
X259448500Y-101707750D01*
X259448500Y-103714750D01*
X259448500Y-103714750D01*
G37*
G36*
X221348500Y-103714750D02*
G01*
X219341500Y-103714750D01*
X219341500Y-101707750D01*
X221348500Y-101707750D01*
X221348500Y-103714750D01*
X221348500Y-103714750D01*
G37*
G36*
X236981425Y-101713238D02*
G01*
X237147710Y-101746313D01*
X237330336Y-101821959D01*
X237494694Y-101931780D01*
X237634470Y-102071556D01*
X237744291Y-102235914D01*
X237819937Y-102418540D01*
X237858500Y-102612414D01*
X237858500Y-102810086D01*
X237819937Y-103003960D01*
X237744291Y-103186586D01*
X237634470Y-103350944D01*
X237494694Y-103490720D01*
X237330336Y-103600541D01*
X237147710Y-103676187D01*
X236981425Y-103709262D01*
X236953837Y-103714750D01*
X236756163Y-103714750D01*
X236728575Y-103709262D01*
X236562290Y-103676187D01*
X236379664Y-103600541D01*
X236215306Y-103490720D01*
X236075530Y-103350944D01*
X235965709Y-103186586D01*
X235890063Y-103003960D01*
X235851500Y-102810086D01*
X235851500Y-102612414D01*
X235890063Y-102418540D01*
X235965709Y-102235914D01*
X236075530Y-102071556D01*
X236215306Y-101931780D01*
X236379664Y-101821959D01*
X236562290Y-101746313D01*
X236728575Y-101713238D01*
X236756163Y-101707750D01*
X236953837Y-101707750D01*
X236981425Y-101713238D01*
X236981425Y-101713238D01*
G37*
G36*
X240398500Y-103714750D02*
G01*
X238391500Y-103714750D01*
X238391500Y-101707750D01*
X240398500Y-101707750D01*
X240398500Y-103714750D01*
X240398500Y-103714750D01*
G37*
G36*
X256031425Y-101713238D02*
G01*
X256197710Y-101746313D01*
X256380336Y-101821959D01*
X256544694Y-101931780D01*
X256684470Y-102071556D01*
X256794291Y-102235914D01*
X256869937Y-102418540D01*
X256908500Y-102612414D01*
X256908500Y-102810086D01*
X256869937Y-103003960D01*
X256794291Y-103186586D01*
X256684470Y-103350944D01*
X256544694Y-103490720D01*
X256380336Y-103600541D01*
X256197710Y-103676187D01*
X256031425Y-103709262D01*
X256003837Y-103714750D01*
X255806163Y-103714750D01*
X255778575Y-103709262D01*
X255612290Y-103676187D01*
X255429664Y-103600541D01*
X255265306Y-103490720D01*
X255125530Y-103350944D01*
X255015709Y-103186586D01*
X254940063Y-103003960D01*
X254901500Y-102810086D01*
X254901500Y-102612414D01*
X254940063Y-102418540D01*
X255015709Y-102235914D01*
X255125530Y-102071556D01*
X255265306Y-101931780D01*
X255429664Y-101821959D01*
X255612290Y-101746313D01*
X255778575Y-101713238D01*
X255806163Y-101707750D01*
X256003837Y-101707750D01*
X256031425Y-101713238D01*
X256031425Y-101713238D01*
G37*
G36*
X217931425Y-101713238D02*
G01*
X218097710Y-101746313D01*
X218280336Y-101821959D01*
X218444694Y-101931780D01*
X218584470Y-102071556D01*
X218694291Y-102235914D01*
X218769937Y-102418540D01*
X218808500Y-102612414D01*
X218808500Y-102810086D01*
X218769937Y-103003960D01*
X218694291Y-103186586D01*
X218584470Y-103350944D01*
X218444694Y-103490720D01*
X218280336Y-103600541D01*
X218097710Y-103676187D01*
X217931425Y-103709262D01*
X217903837Y-103714750D01*
X217706163Y-103714750D01*
X217678575Y-103709262D01*
X217512290Y-103676187D01*
X217329664Y-103600541D01*
X217165306Y-103490720D01*
X217025530Y-103350944D01*
X216915709Y-103186586D01*
X216840063Y-103003960D01*
X216801500Y-102810086D01*
X216801500Y-102612414D01*
X216840063Y-102418540D01*
X216915709Y-102235914D01*
X217025530Y-102071556D01*
X217165306Y-101931780D01*
X217329664Y-101821959D01*
X217512290Y-101746313D01*
X217678575Y-101713238D01*
X217706163Y-101707750D01*
X217903837Y-101707750D01*
X217931425Y-101713238D01*
X217931425Y-101713238D01*
G37*
G36*
X227663500Y-99782250D02*
G01*
X226361500Y-99782250D01*
X226361500Y-98780250D01*
X227663500Y-98780250D01*
X227663500Y-99782250D01*
X227663500Y-99782250D01*
G37*
G36*
X265763500Y-99782250D02*
G01*
X264461500Y-99782250D01*
X264461500Y-98780250D01*
X265763500Y-98780250D01*
X265763500Y-99782250D01*
X265763500Y-99782250D01*
G37*
G36*
X246713500Y-99719750D02*
G01*
X245411500Y-99719750D01*
X245411500Y-98717750D01*
X246713500Y-98717750D01*
X246713500Y-99719750D01*
X246713500Y-99719750D01*
G37*
G36*
X257771474Y-95664934D02*
G01*
X257989474Y-95755233D01*
X258143623Y-95819083D01*
X258478548Y-96042873D01*
X258763377Y-96327702D01*
X258987167Y-96662627D01*
X259019562Y-96740836D01*
X259141316Y-97034776D01*
X259219900Y-97429844D01*
X259219900Y-97832656D01*
X259141316Y-98227724D01*
X259090451Y-98350522D01*
X258987167Y-98599873D01*
X258763377Y-98934798D01*
X258478548Y-99219627D01*
X258143623Y-99443417D01*
X257989474Y-99507267D01*
X257771474Y-99597566D01*
X257376406Y-99676150D01*
X256973594Y-99676150D01*
X256578526Y-99597566D01*
X256360526Y-99507267D01*
X256206377Y-99443417D01*
X255871452Y-99219627D01*
X255586623Y-98934798D01*
X255362833Y-98599873D01*
X255259549Y-98350522D01*
X255208684Y-98227724D01*
X255130100Y-97832656D01*
X255130100Y-97429844D01*
X255208684Y-97034776D01*
X255330438Y-96740836D01*
X255362833Y-96662627D01*
X255586623Y-96327702D01*
X255871452Y-96042873D01*
X256206377Y-95819083D01*
X256360526Y-95755233D01*
X256578526Y-95664934D01*
X256973594Y-95586350D01*
X257376406Y-95586350D01*
X257771474Y-95664934D01*
X257771474Y-95664934D01*
G37*
G36*
X238721474Y-95664934D02*
G01*
X238939474Y-95755233D01*
X239093623Y-95819083D01*
X239428548Y-96042873D01*
X239713377Y-96327702D01*
X239937167Y-96662627D01*
X239969562Y-96740836D01*
X240091316Y-97034776D01*
X240169900Y-97429844D01*
X240169900Y-97832656D01*
X240091316Y-98227724D01*
X240040451Y-98350522D01*
X239937167Y-98599873D01*
X239713377Y-98934798D01*
X239428548Y-99219627D01*
X239093623Y-99443417D01*
X238939474Y-99507267D01*
X238721474Y-99597566D01*
X238326406Y-99676150D01*
X237923594Y-99676150D01*
X237528526Y-99597566D01*
X237310526Y-99507267D01*
X237156377Y-99443417D01*
X236821452Y-99219627D01*
X236536623Y-98934798D01*
X236312833Y-98599873D01*
X236209549Y-98350522D01*
X236158684Y-98227724D01*
X236080100Y-97832656D01*
X236080100Y-97429844D01*
X236158684Y-97034776D01*
X236280438Y-96740836D01*
X236312833Y-96662627D01*
X236536623Y-96327702D01*
X236821452Y-96042873D01*
X237156377Y-95819083D01*
X237310526Y-95755233D01*
X237528526Y-95664934D01*
X237923594Y-95586350D01*
X238326406Y-95586350D01*
X238721474Y-95664934D01*
X238721474Y-95664934D01*
G37*
G36*
X219671474Y-95664934D02*
G01*
X219889474Y-95755233D01*
X220043623Y-95819083D01*
X220378548Y-96042873D01*
X220663377Y-96327702D01*
X220887167Y-96662627D01*
X220919562Y-96740836D01*
X221041316Y-97034776D01*
X221119900Y-97429844D01*
X221119900Y-97832656D01*
X221041316Y-98227724D01*
X220990451Y-98350522D01*
X220887167Y-98599873D01*
X220663377Y-98934798D01*
X220378548Y-99219627D01*
X220043623Y-99443417D01*
X219889474Y-99507267D01*
X219671474Y-99597566D01*
X219276406Y-99676150D01*
X218873594Y-99676150D01*
X218478526Y-99597566D01*
X218260526Y-99507267D01*
X218106377Y-99443417D01*
X217771452Y-99219627D01*
X217486623Y-98934798D01*
X217262833Y-98599873D01*
X217159549Y-98350522D01*
X217108684Y-98227724D01*
X217030100Y-97832656D01*
X217030100Y-97429844D01*
X217108684Y-97034776D01*
X217230438Y-96740836D01*
X217262833Y-96662627D01*
X217486623Y-96327702D01*
X217771452Y-96042873D01*
X218106377Y-95819083D01*
X218260526Y-95755233D01*
X218478526Y-95664934D01*
X218873594Y-95586350D01*
X219276406Y-95586350D01*
X219671474Y-95664934D01*
X219671474Y-95664934D01*
G37*
G36*
X243475104Y-96740835D02*
G01*
X243643626Y-96810639D01*
X243795291Y-96911978D01*
X243924272Y-97040959D01*
X244025611Y-97192624D01*
X244095415Y-97361146D01*
X244131000Y-97540047D01*
X244131000Y-97722453D01*
X244095415Y-97901354D01*
X244025611Y-98069876D01*
X243924272Y-98221541D01*
X243795291Y-98350522D01*
X243643626Y-98451861D01*
X243475104Y-98521665D01*
X243296203Y-98557250D01*
X243113797Y-98557250D01*
X242934896Y-98521665D01*
X242766374Y-98451861D01*
X242614709Y-98350522D01*
X242485728Y-98221541D01*
X242384389Y-98069876D01*
X242314585Y-97901354D01*
X242279000Y-97722453D01*
X242279000Y-97540047D01*
X242314585Y-97361146D01*
X242384389Y-97192624D01*
X242485728Y-97040959D01*
X242614709Y-96911978D01*
X242766374Y-96810639D01*
X242934896Y-96740835D01*
X243113797Y-96705250D01*
X243296203Y-96705250D01*
X243475104Y-96740835D01*
X243475104Y-96740835D01*
G37*
G36*
X214265104Y-96740835D02*
G01*
X214433626Y-96810639D01*
X214585291Y-96911978D01*
X214714272Y-97040959D01*
X214815611Y-97192624D01*
X214885415Y-97361146D01*
X214921000Y-97540047D01*
X214921000Y-97722453D01*
X214885415Y-97901354D01*
X214815611Y-98069876D01*
X214714272Y-98221541D01*
X214585291Y-98350522D01*
X214433626Y-98451861D01*
X214265104Y-98521665D01*
X214086203Y-98557250D01*
X213903797Y-98557250D01*
X213724896Y-98521665D01*
X213556374Y-98451861D01*
X213404709Y-98350522D01*
X213275728Y-98221541D01*
X213174389Y-98069876D01*
X213104585Y-97901354D01*
X213069000Y-97722453D01*
X213069000Y-97540047D01*
X213104585Y-97361146D01*
X213174389Y-97192624D01*
X213275728Y-97040959D01*
X213404709Y-96911978D01*
X213556374Y-96810639D01*
X213724896Y-96740835D01*
X213903797Y-96705250D01*
X214086203Y-96705250D01*
X214265104Y-96740835D01*
X214265104Y-96740835D01*
G37*
G36*
X224425104Y-96740835D02*
G01*
X224593626Y-96810639D01*
X224745291Y-96911978D01*
X224874272Y-97040959D01*
X224975611Y-97192624D01*
X225045415Y-97361146D01*
X225081000Y-97540047D01*
X225081000Y-97722453D01*
X225045415Y-97901354D01*
X224975611Y-98069876D01*
X224874272Y-98221541D01*
X224745291Y-98350522D01*
X224593626Y-98451861D01*
X224425104Y-98521665D01*
X224246203Y-98557250D01*
X224063797Y-98557250D01*
X223884896Y-98521665D01*
X223716374Y-98451861D01*
X223564709Y-98350522D01*
X223435728Y-98221541D01*
X223334389Y-98069876D01*
X223264585Y-97901354D01*
X223229000Y-97722453D01*
X223229000Y-97540047D01*
X223264585Y-97361146D01*
X223334389Y-97192624D01*
X223435728Y-97040959D01*
X223564709Y-96911978D01*
X223716374Y-96810639D01*
X223884896Y-96740835D01*
X224063797Y-96705250D01*
X224246203Y-96705250D01*
X224425104Y-96740835D01*
X224425104Y-96740835D01*
G37*
G36*
X233315104Y-96740835D02*
G01*
X233483626Y-96810639D01*
X233635291Y-96911978D01*
X233764272Y-97040959D01*
X233865611Y-97192624D01*
X233935415Y-97361146D01*
X233971000Y-97540047D01*
X233971000Y-97722453D01*
X233935415Y-97901354D01*
X233865611Y-98069876D01*
X233764272Y-98221541D01*
X233635291Y-98350522D01*
X233483626Y-98451861D01*
X233315104Y-98521665D01*
X233136203Y-98557250D01*
X232953797Y-98557250D01*
X232774896Y-98521665D01*
X232606374Y-98451861D01*
X232454709Y-98350522D01*
X232325728Y-98221541D01*
X232224389Y-98069876D01*
X232154585Y-97901354D01*
X232119000Y-97722453D01*
X232119000Y-97540047D01*
X232154585Y-97361146D01*
X232224389Y-97192624D01*
X232325728Y-97040959D01*
X232454709Y-96911978D01*
X232606374Y-96810639D01*
X232774896Y-96740835D01*
X232953797Y-96705250D01*
X233136203Y-96705250D01*
X233315104Y-96740835D01*
X233315104Y-96740835D01*
G37*
G36*
X252365104Y-96740835D02*
G01*
X252533626Y-96810639D01*
X252685291Y-96911978D01*
X252814272Y-97040959D01*
X252915611Y-97192624D01*
X252985415Y-97361146D01*
X253021000Y-97540047D01*
X253021000Y-97722453D01*
X252985415Y-97901354D01*
X252915611Y-98069876D01*
X252814272Y-98221541D01*
X252685291Y-98350522D01*
X252533626Y-98451861D01*
X252365104Y-98521665D01*
X252186203Y-98557250D01*
X252003797Y-98557250D01*
X251824896Y-98521665D01*
X251656374Y-98451861D01*
X251504709Y-98350522D01*
X251375728Y-98221541D01*
X251274389Y-98069876D01*
X251204585Y-97901354D01*
X251169000Y-97722453D01*
X251169000Y-97540047D01*
X251204585Y-97361146D01*
X251274389Y-97192624D01*
X251375728Y-97040959D01*
X251504709Y-96911978D01*
X251656374Y-96810639D01*
X251824896Y-96740835D01*
X252003797Y-96705250D01*
X252186203Y-96705250D01*
X252365104Y-96740835D01*
X252365104Y-96740835D01*
G37*
G36*
X262525104Y-96740835D02*
G01*
X262693626Y-96810639D01*
X262845291Y-96911978D01*
X262974272Y-97040959D01*
X263075611Y-97192624D01*
X263145415Y-97361146D01*
X263181000Y-97540047D01*
X263181000Y-97722453D01*
X263145415Y-97901354D01*
X263075611Y-98069876D01*
X262974272Y-98221541D01*
X262845291Y-98350522D01*
X262693626Y-98451861D01*
X262525104Y-98521665D01*
X262346203Y-98557250D01*
X262163797Y-98557250D01*
X261984896Y-98521665D01*
X261816374Y-98451861D01*
X261664709Y-98350522D01*
X261535728Y-98221541D01*
X261434389Y-98069876D01*
X261364585Y-97901354D01*
X261329000Y-97722453D01*
X261329000Y-97540047D01*
X261364585Y-97361146D01*
X261434389Y-97192624D01*
X261535728Y-97040959D01*
X261664709Y-96911978D01*
X261816374Y-96810639D01*
X261984896Y-96740835D01*
X262163797Y-96705250D01*
X262346203Y-96705250D01*
X262525104Y-96740835D01*
X262525104Y-96740835D01*
G37*
G36*
X265763500Y-96482250D02*
G01*
X264461500Y-96482250D01*
X264461500Y-95480250D01*
X265763500Y-95480250D01*
X265763500Y-96482250D01*
X265763500Y-96482250D01*
G37*
G36*
X227663500Y-96482250D02*
G01*
X226361500Y-96482250D01*
X226361500Y-95480250D01*
X227663500Y-95480250D01*
X227663500Y-96482250D01*
X227663500Y-96482250D01*
G37*
G36*
X246713500Y-96419750D02*
G01*
X245411500Y-96419750D01*
X245411500Y-95417750D01*
X246713500Y-95417750D01*
X246713500Y-96419750D01*
X246713500Y-96419750D01*
G37*
G36*
X215456560Y-93930314D02*
G01*
X215608027Y-93960443D01*
X215822045Y-94049092D01*
X215822046Y-94049093D01*
X216014654Y-94177789D01*
X216178461Y-94341596D01*
X216264258Y-94470001D01*
X216307158Y-94534205D01*
X216395807Y-94748223D01*
X216441000Y-94975424D01*
X216441000Y-95207076D01*
X216395807Y-95434277D01*
X216307158Y-95648295D01*
X216307157Y-95648296D01*
X216178461Y-95840904D01*
X216014654Y-96004711D01*
X215957540Y-96042873D01*
X215822045Y-96133408D01*
X215608027Y-96222057D01*
X215456560Y-96252186D01*
X215380827Y-96267250D01*
X215149173Y-96267250D01*
X215073440Y-96252186D01*
X214921973Y-96222057D01*
X214707955Y-96133408D01*
X214572460Y-96042873D01*
X214515346Y-96004711D01*
X214351539Y-95840904D01*
X214222843Y-95648296D01*
X214222842Y-95648295D01*
X214134193Y-95434277D01*
X214089000Y-95207076D01*
X214089000Y-94975424D01*
X214134193Y-94748223D01*
X214222842Y-94534205D01*
X214265742Y-94470001D01*
X214351539Y-94341596D01*
X214515346Y-94177789D01*
X214707954Y-94049093D01*
X214707955Y-94049092D01*
X214921973Y-93960443D01*
X215073440Y-93930314D01*
X215149173Y-93915250D01*
X215380827Y-93915250D01*
X215456560Y-93930314D01*
X215456560Y-93930314D01*
G37*
G36*
X234506560Y-93930314D02*
G01*
X234658027Y-93960443D01*
X234872045Y-94049092D01*
X234872046Y-94049093D01*
X235064654Y-94177789D01*
X235228461Y-94341596D01*
X235314258Y-94470001D01*
X235357158Y-94534205D01*
X235445807Y-94748223D01*
X235491000Y-94975424D01*
X235491000Y-95207076D01*
X235445807Y-95434277D01*
X235357158Y-95648295D01*
X235357157Y-95648296D01*
X235228461Y-95840904D01*
X235064654Y-96004711D01*
X235007540Y-96042873D01*
X234872045Y-96133408D01*
X234658027Y-96222057D01*
X234506560Y-96252186D01*
X234430827Y-96267250D01*
X234199173Y-96267250D01*
X234123440Y-96252186D01*
X233971973Y-96222057D01*
X233757955Y-96133408D01*
X233622460Y-96042873D01*
X233565346Y-96004711D01*
X233401539Y-95840904D01*
X233272843Y-95648296D01*
X233272842Y-95648295D01*
X233184193Y-95434277D01*
X233139000Y-95207076D01*
X233139000Y-94975424D01*
X233184193Y-94748223D01*
X233272842Y-94534205D01*
X233315742Y-94470001D01*
X233401539Y-94341596D01*
X233565346Y-94177789D01*
X233757954Y-94049093D01*
X233757955Y-94049092D01*
X233971973Y-93960443D01*
X234123440Y-93930314D01*
X234199173Y-93915250D01*
X234430827Y-93915250D01*
X234506560Y-93930314D01*
X234506560Y-93930314D01*
G37*
G36*
X253556560Y-93930314D02*
G01*
X253708027Y-93960443D01*
X253922045Y-94049092D01*
X253922046Y-94049093D01*
X254114654Y-94177789D01*
X254278461Y-94341596D01*
X254364258Y-94470001D01*
X254407158Y-94534205D01*
X254495807Y-94748223D01*
X254541000Y-94975424D01*
X254541000Y-95207076D01*
X254495807Y-95434277D01*
X254407158Y-95648295D01*
X254407157Y-95648296D01*
X254278461Y-95840904D01*
X254114654Y-96004711D01*
X254057540Y-96042873D01*
X253922045Y-96133408D01*
X253708027Y-96222057D01*
X253556560Y-96252186D01*
X253480827Y-96267250D01*
X253249173Y-96267250D01*
X253173440Y-96252186D01*
X253021973Y-96222057D01*
X252807955Y-96133408D01*
X252672460Y-96042873D01*
X252615346Y-96004711D01*
X252451539Y-95840904D01*
X252322843Y-95648296D01*
X252322842Y-95648295D01*
X252234193Y-95434277D01*
X252189000Y-95207076D01*
X252189000Y-94975424D01*
X252234193Y-94748223D01*
X252322842Y-94534205D01*
X252365742Y-94470001D01*
X252451539Y-94341596D01*
X252615346Y-94177789D01*
X252807954Y-94049093D01*
X252807955Y-94049092D01*
X253021973Y-93960443D01*
X253173440Y-93930314D01*
X253249173Y-93915250D01*
X253480827Y-93915250D01*
X253556560Y-93930314D01*
X253556560Y-93930314D01*
G37*
G36*
X221806560Y-91390314D02*
G01*
X221958027Y-91420443D01*
X222172045Y-91509092D01*
X222172046Y-91509093D01*
X222364654Y-91637789D01*
X222528461Y-91801596D01*
X222614258Y-91930001D01*
X222657158Y-91994205D01*
X222745807Y-92208223D01*
X222791000Y-92435424D01*
X222791000Y-92667076D01*
X222745807Y-92894277D01*
X222657158Y-93108295D01*
X222657157Y-93108296D01*
X222528461Y-93300904D01*
X222364654Y-93464711D01*
X222236249Y-93550508D01*
X222172045Y-93593408D01*
X221958027Y-93682057D01*
X221806560Y-93712186D01*
X221730827Y-93727250D01*
X221499173Y-93727250D01*
X221423440Y-93712186D01*
X221271973Y-93682057D01*
X221057955Y-93593408D01*
X220993751Y-93550508D01*
X220865346Y-93464711D01*
X220701539Y-93300904D01*
X220572843Y-93108296D01*
X220572842Y-93108295D01*
X220484193Y-92894277D01*
X220439000Y-92667076D01*
X220439000Y-92435424D01*
X220484193Y-92208223D01*
X220572842Y-91994205D01*
X220615742Y-91930001D01*
X220701539Y-91801596D01*
X220865346Y-91637789D01*
X221057954Y-91509093D01*
X221057955Y-91509092D01*
X221271973Y-91420443D01*
X221423440Y-91390314D01*
X221499173Y-91375250D01*
X221730827Y-91375250D01*
X221806560Y-91390314D01*
X221806560Y-91390314D01*
G37*
G36*
X240856560Y-91390314D02*
G01*
X241008027Y-91420443D01*
X241222045Y-91509092D01*
X241222046Y-91509093D01*
X241414654Y-91637789D01*
X241578461Y-91801596D01*
X241664258Y-91930001D01*
X241707158Y-91994205D01*
X241795807Y-92208223D01*
X241841000Y-92435424D01*
X241841000Y-92667076D01*
X241795807Y-92894277D01*
X241707158Y-93108295D01*
X241707157Y-93108296D01*
X241578461Y-93300904D01*
X241414654Y-93464711D01*
X241286249Y-93550508D01*
X241222045Y-93593408D01*
X241008027Y-93682057D01*
X240856560Y-93712186D01*
X240780827Y-93727250D01*
X240549173Y-93727250D01*
X240473440Y-93712186D01*
X240321973Y-93682057D01*
X240107955Y-93593408D01*
X240043751Y-93550508D01*
X239915346Y-93464711D01*
X239751539Y-93300904D01*
X239622843Y-93108296D01*
X239622842Y-93108295D01*
X239534193Y-92894277D01*
X239489000Y-92667076D01*
X239489000Y-92435424D01*
X239534193Y-92208223D01*
X239622842Y-91994205D01*
X239665742Y-91930001D01*
X239751539Y-91801596D01*
X239915346Y-91637789D01*
X240107954Y-91509093D01*
X240107955Y-91509092D01*
X240321973Y-91420443D01*
X240473440Y-91390314D01*
X240549173Y-91375250D01*
X240780827Y-91375250D01*
X240856560Y-91390314D01*
X240856560Y-91390314D01*
G37*
G36*
X259906560Y-91390314D02*
G01*
X260058027Y-91420443D01*
X260272045Y-91509092D01*
X260272046Y-91509093D01*
X260464654Y-91637789D01*
X260628461Y-91801596D01*
X260714258Y-91930001D01*
X260757158Y-91994205D01*
X260845807Y-92208223D01*
X260891000Y-92435424D01*
X260891000Y-92667076D01*
X260845807Y-92894277D01*
X260757158Y-93108295D01*
X260757157Y-93108296D01*
X260628461Y-93300904D01*
X260464654Y-93464711D01*
X260336249Y-93550508D01*
X260272045Y-93593408D01*
X260058027Y-93682057D01*
X259906560Y-93712186D01*
X259830827Y-93727250D01*
X259599173Y-93727250D01*
X259523440Y-93712186D01*
X259371973Y-93682057D01*
X259157955Y-93593408D01*
X259093751Y-93550508D01*
X258965346Y-93464711D01*
X258801539Y-93300904D01*
X258672843Y-93108296D01*
X258672842Y-93108295D01*
X258584193Y-92894277D01*
X258539000Y-92667076D01*
X258539000Y-92435424D01*
X258584193Y-92208223D01*
X258672842Y-91994205D01*
X258715742Y-91930001D01*
X258801539Y-91801596D01*
X258965346Y-91637789D01*
X259157954Y-91509093D01*
X259157955Y-91509092D01*
X259371973Y-91420443D01*
X259523440Y-91390314D01*
X259599173Y-91375250D01*
X259830827Y-91375250D01*
X259906560Y-91390314D01*
X259906560Y-91390314D01*
G37*
G36*
X257001674Y-85357465D02*
G01*
X257039367Y-85368899D01*
X257074103Y-85387466D01*
X257104548Y-85412452D01*
X257129534Y-85442897D01*
X257148101Y-85477633D01*
X257159535Y-85515326D01*
X257164000Y-85560661D01*
X257164000Y-86397339D01*
X257159535Y-86442674D01*
X257148101Y-86480367D01*
X257129534Y-86515103D01*
X257104548Y-86545548D01*
X257074103Y-86570534D01*
X257039367Y-86589101D01*
X257001674Y-86600535D01*
X256956339Y-86605000D01*
X255869661Y-86605000D01*
X255824326Y-86600535D01*
X255786633Y-86589101D01*
X255751897Y-86570534D01*
X255721452Y-86545548D01*
X255696466Y-86515103D01*
X255677899Y-86480367D01*
X255666465Y-86442674D01*
X255662000Y-86397339D01*
X255662000Y-85560661D01*
X255666465Y-85515326D01*
X255677899Y-85477633D01*
X255696466Y-85442897D01*
X255721452Y-85412452D01*
X255751897Y-85387466D01*
X255786633Y-85368899D01*
X255824326Y-85357465D01*
X255869661Y-85353000D01*
X256956339Y-85353000D01*
X257001674Y-85357465D01*
X257001674Y-85357465D01*
G37*
G36*
X251722000Y-86130000D02*
G01*
X243070000Y-86130000D01*
X243070000Y-84528000D01*
X251722000Y-84528000D01*
X251722000Y-86130000D01*
X251722000Y-86130000D01*
G37*
G36*
X261984499Y-84109445D02*
G01*
X262021995Y-84120820D01*
X262056554Y-84139292D01*
X262086847Y-84164153D01*
X262111708Y-84194446D01*
X262130180Y-84229005D01*
X262141555Y-84266501D01*
X262146000Y-84311638D01*
X262146000Y-85050362D01*
X262141555Y-85095499D01*
X262130180Y-85132995D01*
X262111708Y-85167554D01*
X262086847Y-85197847D01*
X262056554Y-85222708D01*
X262021995Y-85241180D01*
X261984499Y-85252555D01*
X261939362Y-85257000D01*
X261300638Y-85257000D01*
X261255501Y-85252555D01*
X261218005Y-85241180D01*
X261183446Y-85222708D01*
X261153153Y-85197847D01*
X261128292Y-85167554D01*
X261109820Y-85132995D01*
X261098445Y-85095499D01*
X261094000Y-85050362D01*
X261094000Y-84311638D01*
X261098445Y-84266501D01*
X261109820Y-84229005D01*
X261128292Y-84194446D01*
X261153153Y-84164153D01*
X261183446Y-84139292D01*
X261218005Y-84120820D01*
X261255501Y-84109445D01*
X261300638Y-84105000D01*
X261939362Y-84105000D01*
X261984499Y-84109445D01*
X261984499Y-84109445D01*
G37*
G36*
X266169000Y-85221000D02*
G01*
X265167000Y-85221000D01*
X265167000Y-84319000D01*
X266169000Y-84319000D01*
X266169000Y-85221000D01*
X266169000Y-85221000D01*
G37*
G36*
X257001674Y-83307465D02*
G01*
X257039367Y-83318899D01*
X257074103Y-83337466D01*
X257104548Y-83362452D01*
X257129534Y-83392897D01*
X257148101Y-83427633D01*
X257159535Y-83465326D01*
X257164000Y-83510661D01*
X257164000Y-84347339D01*
X257159535Y-84392674D01*
X257148101Y-84430367D01*
X257129534Y-84465103D01*
X257104548Y-84495548D01*
X257074103Y-84520534D01*
X257039367Y-84539101D01*
X257001674Y-84550535D01*
X256956339Y-84555000D01*
X255869661Y-84555000D01*
X255824326Y-84550535D01*
X255786633Y-84539101D01*
X255751897Y-84520534D01*
X255721452Y-84495548D01*
X255696466Y-84465103D01*
X255677899Y-84430367D01*
X255666465Y-84392674D01*
X255662000Y-84347339D01*
X255662000Y-83510661D01*
X255666465Y-83465326D01*
X255677899Y-83427633D01*
X255696466Y-83392897D01*
X255721452Y-83362452D01*
X255751897Y-83337466D01*
X255786633Y-83318899D01*
X255824326Y-83307465D01*
X255869661Y-83303000D01*
X256956339Y-83303000D01*
X257001674Y-83307465D01*
X257001674Y-83307465D01*
G37*
G36*
X264169000Y-84271000D02*
G01*
X263167000Y-84271000D01*
X263167000Y-83369000D01*
X264169000Y-83369000D01*
X264169000Y-84271000D01*
X264169000Y-84271000D01*
G37*
G36*
X242497000Y-83955000D02*
G01*
X240895000Y-83955000D01*
X240895000Y-75303000D01*
X242497000Y-75303000D01*
X242497000Y-83955000D01*
X242497000Y-83955000D01*
G37*
G36*
X253897000Y-83955000D02*
G01*
X252295000Y-83955000D01*
X252295000Y-75303000D01*
X253897000Y-75303000D01*
X253897000Y-83955000D01*
X253897000Y-83955000D01*
G37*
G36*
X261984499Y-82359445D02*
G01*
X262021995Y-82370820D01*
X262056554Y-82389292D01*
X262086847Y-82414153D01*
X262111708Y-82444446D01*
X262130180Y-82479005D01*
X262141555Y-82516501D01*
X262146000Y-82561638D01*
X262146000Y-83300362D01*
X262141555Y-83345499D01*
X262130180Y-83382995D01*
X262111708Y-83417554D01*
X262086847Y-83447847D01*
X262056554Y-83472708D01*
X262021995Y-83491180D01*
X261984499Y-83502555D01*
X261939362Y-83507000D01*
X261300638Y-83507000D01*
X261255501Y-83502555D01*
X261218005Y-83491180D01*
X261183446Y-83472708D01*
X261153153Y-83447847D01*
X261128292Y-83417554D01*
X261109820Y-83382995D01*
X261098445Y-83345499D01*
X261094000Y-83300362D01*
X261094000Y-82561638D01*
X261098445Y-82516501D01*
X261109820Y-82479005D01*
X261128292Y-82444446D01*
X261153153Y-82414153D01*
X261183446Y-82389292D01*
X261218005Y-82370820D01*
X261255501Y-82359445D01*
X261300638Y-82355000D01*
X261939362Y-82355000D01*
X261984499Y-82359445D01*
X261984499Y-82359445D01*
G37*
G36*
X266169000Y-83321000D02*
G01*
X265167000Y-83321000D01*
X265167000Y-82419000D01*
X266169000Y-82419000D01*
X266169000Y-83321000D01*
X266169000Y-83321000D01*
G37*
G36*
X257001674Y-81302465D02*
G01*
X257039367Y-81313899D01*
X257074103Y-81332466D01*
X257104548Y-81357452D01*
X257129534Y-81387897D01*
X257148101Y-81422633D01*
X257159535Y-81460326D01*
X257164000Y-81505661D01*
X257164000Y-82342339D01*
X257159535Y-82387674D01*
X257148101Y-82425367D01*
X257129534Y-82460103D01*
X257104548Y-82490548D01*
X257074103Y-82515534D01*
X257039367Y-82534101D01*
X257001674Y-82545535D01*
X256956339Y-82550000D01*
X255869661Y-82550000D01*
X255824326Y-82545535D01*
X255786633Y-82534101D01*
X255751897Y-82515534D01*
X255721452Y-82490548D01*
X255696466Y-82460103D01*
X255677899Y-82425367D01*
X255666465Y-82387674D01*
X255662000Y-82342339D01*
X255662000Y-81505661D01*
X255666465Y-81460326D01*
X255677899Y-81422633D01*
X255696466Y-81387897D01*
X255721452Y-81357452D01*
X255751897Y-81332466D01*
X255786633Y-81313899D01*
X255824326Y-81302465D01*
X255869661Y-81298000D01*
X256956339Y-81298000D01*
X257001674Y-81302465D01*
X257001674Y-81302465D01*
G37*
G36*
X257001674Y-79252465D02*
G01*
X257039367Y-79263899D01*
X257074103Y-79282466D01*
X257104548Y-79307452D01*
X257129534Y-79337897D01*
X257148101Y-79372633D01*
X257159535Y-79410326D01*
X257164000Y-79455661D01*
X257164000Y-80292339D01*
X257159535Y-80337674D01*
X257148101Y-80375367D01*
X257129534Y-80410103D01*
X257104548Y-80440548D01*
X257074103Y-80465534D01*
X257039367Y-80484101D01*
X257001674Y-80495535D01*
X256956339Y-80500000D01*
X255869661Y-80500000D01*
X255824326Y-80495535D01*
X255786633Y-80484101D01*
X255751897Y-80465534D01*
X255721452Y-80440548D01*
X255696466Y-80410103D01*
X255677899Y-80375367D01*
X255666465Y-80337674D01*
X255662000Y-80292339D01*
X255662000Y-79455661D01*
X255666465Y-79410326D01*
X255677899Y-79372633D01*
X255696466Y-79337897D01*
X255721452Y-79307452D01*
X255751897Y-79282466D01*
X255786633Y-79263899D01*
X255824326Y-79252465D01*
X255869661Y-79248000D01*
X256956339Y-79248000D01*
X257001674Y-79252465D01*
X257001674Y-79252465D01*
G37*
G36*
X217183562Y-76510681D02*
G01*
X217218481Y-76521274D01*
X217250663Y-76538476D01*
X217278873Y-76561627D01*
X217302024Y-76589837D01*
X217319226Y-76622019D01*
X217329819Y-76656938D01*
X217334000Y-76699395D01*
X217334000Y-77840605D01*
X217329819Y-77883062D01*
X217319226Y-77917981D01*
X217302024Y-77950163D01*
X217278873Y-77978373D01*
X217250663Y-78001524D01*
X217218481Y-78018726D01*
X217183562Y-78029319D01*
X217141105Y-78033500D01*
X215674895Y-78033500D01*
X215632438Y-78029319D01*
X215597519Y-78018726D01*
X215565337Y-78001524D01*
X215537127Y-77978373D01*
X215513976Y-77950163D01*
X215496774Y-77917981D01*
X215486181Y-77883062D01*
X215482000Y-77840605D01*
X215482000Y-76699395D01*
X215486181Y-76656938D01*
X215496774Y-76622019D01*
X215513976Y-76589837D01*
X215537127Y-76561627D01*
X215565337Y-76538476D01*
X215597519Y-76521274D01*
X215632438Y-76510681D01*
X215674895Y-76506500D01*
X217141105Y-76506500D01*
X217183562Y-76510681D01*
X217183562Y-76510681D01*
G37*
G36*
X237189674Y-75977465D02*
G01*
X237227367Y-75988899D01*
X237262103Y-76007466D01*
X237292548Y-76032452D01*
X237317534Y-76062897D01*
X237336101Y-76097633D01*
X237347535Y-76135326D01*
X237352000Y-76180661D01*
X237352000Y-77017339D01*
X237347535Y-77062674D01*
X237336101Y-77100367D01*
X237317534Y-77135103D01*
X237292548Y-77165548D01*
X237262103Y-77190534D01*
X237227367Y-77209101D01*
X237189674Y-77220535D01*
X237144339Y-77225000D01*
X236057661Y-77225000D01*
X236012326Y-77220535D01*
X235974633Y-77209101D01*
X235939897Y-77190534D01*
X235909452Y-77165548D01*
X235884466Y-77135103D01*
X235865899Y-77100367D01*
X235854465Y-77062674D01*
X235850000Y-77017339D01*
X235850000Y-76180661D01*
X235854465Y-76135326D01*
X235865899Y-76097633D01*
X235884466Y-76062897D01*
X235909452Y-76032452D01*
X235939897Y-76007466D01*
X235974633Y-75988899D01*
X236012326Y-75977465D01*
X236057661Y-75973000D01*
X237144339Y-75973000D01*
X237189674Y-75977465D01*
X237189674Y-75977465D01*
G37*
G36*
X220171674Y-75850465D02*
G01*
X220209367Y-75861899D01*
X220244103Y-75880466D01*
X220274548Y-75905452D01*
X220299534Y-75935897D01*
X220318101Y-75970633D01*
X220329535Y-76008326D01*
X220334000Y-76053661D01*
X220334000Y-76890339D01*
X220329535Y-76935674D01*
X220318101Y-76973367D01*
X220299534Y-77008103D01*
X220274548Y-77038548D01*
X220244103Y-77063534D01*
X220209367Y-77082101D01*
X220171674Y-77093535D01*
X220126339Y-77098000D01*
X219039661Y-77098000D01*
X218994326Y-77093535D01*
X218956633Y-77082101D01*
X218921897Y-77063534D01*
X218891452Y-77038548D01*
X218866466Y-77008103D01*
X218847899Y-76973367D01*
X218836465Y-76935674D01*
X218832000Y-76890339D01*
X218832000Y-76053661D01*
X218836465Y-76008326D01*
X218847899Y-75970633D01*
X218866466Y-75935897D01*
X218891452Y-75905452D01*
X218921897Y-75880466D01*
X218956633Y-75861899D01*
X218994326Y-75850465D01*
X219039661Y-75846000D01*
X220126339Y-75846000D01*
X220171674Y-75850465D01*
X220171674Y-75850465D01*
G37*
G36*
X228045674Y-75850465D02*
G01*
X228083367Y-75861899D01*
X228118103Y-75880466D01*
X228148548Y-75905452D01*
X228173534Y-75935897D01*
X228192101Y-75970633D01*
X228203535Y-76008326D01*
X228208000Y-76053661D01*
X228208000Y-76890339D01*
X228203535Y-76935674D01*
X228192101Y-76973367D01*
X228173534Y-77008103D01*
X228148548Y-77038548D01*
X228118103Y-77063534D01*
X228083367Y-77082101D01*
X228045674Y-77093535D01*
X228000339Y-77098000D01*
X226913661Y-77098000D01*
X226868326Y-77093535D01*
X226830633Y-77082101D01*
X226795897Y-77063534D01*
X226765452Y-77038548D01*
X226740466Y-77008103D01*
X226721899Y-76973367D01*
X226710465Y-76935674D01*
X226706000Y-76890339D01*
X226706000Y-76053661D01*
X226710465Y-76008326D01*
X226721899Y-75970633D01*
X226740466Y-75935897D01*
X226765452Y-75905452D01*
X226795897Y-75880466D01*
X226830633Y-75861899D01*
X226868326Y-75850465D01*
X226913661Y-75846000D01*
X228000339Y-75846000D01*
X228045674Y-75850465D01*
X228045674Y-75850465D01*
G37*
G36*
X232490674Y-75850465D02*
G01*
X232528367Y-75861899D01*
X232563103Y-75880466D01*
X232593548Y-75905452D01*
X232618534Y-75935897D01*
X232637101Y-75970633D01*
X232648535Y-76008326D01*
X232653000Y-76053661D01*
X232653000Y-76890339D01*
X232648535Y-76935674D01*
X232637101Y-76973367D01*
X232618534Y-77008103D01*
X232593548Y-77038548D01*
X232563103Y-77063534D01*
X232528367Y-77082101D01*
X232490674Y-77093535D01*
X232445339Y-77098000D01*
X231358661Y-77098000D01*
X231313326Y-77093535D01*
X231275633Y-77082101D01*
X231240897Y-77063534D01*
X231210452Y-77038548D01*
X231185466Y-77008103D01*
X231166899Y-76973367D01*
X231155465Y-76935674D01*
X231151000Y-76890339D01*
X231151000Y-76053661D01*
X231155465Y-76008326D01*
X231166899Y-75970633D01*
X231185466Y-75935897D01*
X231210452Y-75905452D01*
X231240897Y-75880466D01*
X231275633Y-75861899D01*
X231313326Y-75850465D01*
X231358661Y-75846000D01*
X232445339Y-75846000D01*
X232490674Y-75850465D01*
X232490674Y-75850465D01*
G37*
G36*
X222838674Y-75841465D02*
G01*
X222876367Y-75852899D01*
X222911103Y-75871466D01*
X222941548Y-75896452D01*
X222966534Y-75926897D01*
X222985101Y-75961633D01*
X222996535Y-75999326D01*
X223001000Y-76044661D01*
X223001000Y-76881339D01*
X222996535Y-76926674D01*
X222985101Y-76964367D01*
X222966534Y-76999103D01*
X222941548Y-77029548D01*
X222911103Y-77054534D01*
X222876367Y-77073101D01*
X222838674Y-77084535D01*
X222793339Y-77089000D01*
X221706661Y-77089000D01*
X221661326Y-77084535D01*
X221623633Y-77073101D01*
X221588897Y-77054534D01*
X221558452Y-77029548D01*
X221533466Y-76999103D01*
X221514899Y-76964367D01*
X221503465Y-76926674D01*
X221499000Y-76881339D01*
X221499000Y-76044661D01*
X221503465Y-75999326D01*
X221514899Y-75961633D01*
X221533466Y-75926897D01*
X221558452Y-75896452D01*
X221588897Y-75871466D01*
X221623633Y-75852899D01*
X221661326Y-75841465D01*
X221706661Y-75837000D01*
X222793339Y-75837000D01*
X222838674Y-75841465D01*
X222838674Y-75841465D01*
G37*
G36*
X237189674Y-73927465D02*
G01*
X237227367Y-73938899D01*
X237262103Y-73957466D01*
X237292548Y-73982452D01*
X237317534Y-74012897D01*
X237336101Y-74047633D01*
X237347535Y-74085326D01*
X237352000Y-74130661D01*
X237352000Y-74967339D01*
X237347535Y-75012674D01*
X237336101Y-75050367D01*
X237317534Y-75085103D01*
X237292548Y-75115548D01*
X237262103Y-75140534D01*
X237227367Y-75159101D01*
X237189674Y-75170535D01*
X237144339Y-75175000D01*
X236057661Y-75175000D01*
X236012326Y-75170535D01*
X235974633Y-75159101D01*
X235939897Y-75140534D01*
X235909452Y-75115548D01*
X235884466Y-75085103D01*
X235865899Y-75050367D01*
X235854465Y-75012674D01*
X235850000Y-74967339D01*
X235850000Y-74130661D01*
X235854465Y-74085326D01*
X235865899Y-74047633D01*
X235884466Y-74012897D01*
X235909452Y-73982452D01*
X235939897Y-73957466D01*
X235974633Y-73938899D01*
X236012326Y-73927465D01*
X236057661Y-73923000D01*
X237144339Y-73923000D01*
X237189674Y-73927465D01*
X237189674Y-73927465D01*
G37*
G36*
X217183562Y-73535681D02*
G01*
X217218481Y-73546274D01*
X217250663Y-73563476D01*
X217278873Y-73586627D01*
X217302024Y-73614837D01*
X217319226Y-73647019D01*
X217329819Y-73681938D01*
X217334000Y-73724395D01*
X217334000Y-74865605D01*
X217329819Y-74908062D01*
X217319226Y-74942981D01*
X217302024Y-74975163D01*
X217278873Y-75003373D01*
X217250663Y-75026524D01*
X217218481Y-75043726D01*
X217183562Y-75054319D01*
X217141105Y-75058500D01*
X215674895Y-75058500D01*
X215632438Y-75054319D01*
X215597519Y-75043726D01*
X215565337Y-75026524D01*
X215537127Y-75003373D01*
X215513976Y-74975163D01*
X215496774Y-74942981D01*
X215486181Y-74908062D01*
X215482000Y-74865605D01*
X215482000Y-73724395D01*
X215486181Y-73681938D01*
X215496774Y-73647019D01*
X215513976Y-73614837D01*
X215537127Y-73586627D01*
X215565337Y-73563476D01*
X215597519Y-73546274D01*
X215632438Y-73535681D01*
X215674895Y-73531500D01*
X217141105Y-73531500D01*
X217183562Y-73535681D01*
X217183562Y-73535681D01*
G37*
G36*
X220171674Y-73800465D02*
G01*
X220209367Y-73811899D01*
X220244103Y-73830466D01*
X220274548Y-73855452D01*
X220299534Y-73885897D01*
X220318101Y-73920633D01*
X220329535Y-73958326D01*
X220334000Y-74003661D01*
X220334000Y-74840339D01*
X220329535Y-74885674D01*
X220318101Y-74923367D01*
X220299534Y-74958103D01*
X220274548Y-74988548D01*
X220244103Y-75013534D01*
X220209367Y-75032101D01*
X220171674Y-75043535D01*
X220126339Y-75048000D01*
X219039661Y-75048000D01*
X218994326Y-75043535D01*
X218956633Y-75032101D01*
X218921897Y-75013534D01*
X218891452Y-74988548D01*
X218866466Y-74958103D01*
X218847899Y-74923367D01*
X218836465Y-74885674D01*
X218832000Y-74840339D01*
X218832000Y-74003661D01*
X218836465Y-73958326D01*
X218847899Y-73920633D01*
X218866466Y-73885897D01*
X218891452Y-73855452D01*
X218921897Y-73830466D01*
X218956633Y-73811899D01*
X218994326Y-73800465D01*
X219039661Y-73796000D01*
X220126339Y-73796000D01*
X220171674Y-73800465D01*
X220171674Y-73800465D01*
G37*
G36*
X228045674Y-73800465D02*
G01*
X228083367Y-73811899D01*
X228118103Y-73830466D01*
X228148548Y-73855452D01*
X228173534Y-73885897D01*
X228192101Y-73920633D01*
X228203535Y-73958326D01*
X228208000Y-74003661D01*
X228208000Y-74840339D01*
X228203535Y-74885674D01*
X228192101Y-74923367D01*
X228173534Y-74958103D01*
X228148548Y-74988548D01*
X228118103Y-75013534D01*
X228083367Y-75032101D01*
X228045674Y-75043535D01*
X228000339Y-75048000D01*
X226913661Y-75048000D01*
X226868326Y-75043535D01*
X226830633Y-75032101D01*
X226795897Y-75013534D01*
X226765452Y-74988548D01*
X226740466Y-74958103D01*
X226721899Y-74923367D01*
X226710465Y-74885674D01*
X226706000Y-74840339D01*
X226706000Y-74003661D01*
X226710465Y-73958326D01*
X226721899Y-73920633D01*
X226740466Y-73885897D01*
X226765452Y-73855452D01*
X226795897Y-73830466D01*
X226830633Y-73811899D01*
X226868326Y-73800465D01*
X226913661Y-73796000D01*
X228000339Y-73796000D01*
X228045674Y-73800465D01*
X228045674Y-73800465D01*
G37*
G36*
X232490674Y-73800465D02*
G01*
X232528367Y-73811899D01*
X232563103Y-73830466D01*
X232593548Y-73855452D01*
X232618534Y-73885897D01*
X232637101Y-73920633D01*
X232648535Y-73958326D01*
X232653000Y-74003661D01*
X232653000Y-74840339D01*
X232648535Y-74885674D01*
X232637101Y-74923367D01*
X232618534Y-74958103D01*
X232593548Y-74988548D01*
X232563103Y-75013534D01*
X232528367Y-75032101D01*
X232490674Y-75043535D01*
X232445339Y-75048000D01*
X231358661Y-75048000D01*
X231313326Y-75043535D01*
X231275633Y-75032101D01*
X231240897Y-75013534D01*
X231210452Y-74988548D01*
X231185466Y-74958103D01*
X231166899Y-74923367D01*
X231155465Y-74885674D01*
X231151000Y-74840339D01*
X231151000Y-74003661D01*
X231155465Y-73958326D01*
X231166899Y-73920633D01*
X231185466Y-73885897D01*
X231210452Y-73855452D01*
X231240897Y-73830466D01*
X231275633Y-73811899D01*
X231313326Y-73800465D01*
X231358661Y-73796000D01*
X232445339Y-73796000D01*
X232490674Y-73800465D01*
X232490674Y-73800465D01*
G37*
G36*
X222838674Y-73791465D02*
G01*
X222876367Y-73802899D01*
X222911103Y-73821466D01*
X222941548Y-73846452D01*
X222966534Y-73876897D01*
X222985101Y-73911633D01*
X222996535Y-73949326D01*
X223001000Y-73994661D01*
X223001000Y-74831339D01*
X222996535Y-74876674D01*
X222985101Y-74914367D01*
X222966534Y-74949103D01*
X222941548Y-74979548D01*
X222911103Y-75004534D01*
X222876367Y-75023101D01*
X222838674Y-75034535D01*
X222793339Y-75039000D01*
X221706661Y-75039000D01*
X221661326Y-75034535D01*
X221623633Y-75023101D01*
X221588897Y-75004534D01*
X221558452Y-74979548D01*
X221533466Y-74949103D01*
X221514899Y-74914367D01*
X221503465Y-74876674D01*
X221499000Y-74831339D01*
X221499000Y-73994661D01*
X221503465Y-73949326D01*
X221514899Y-73911633D01*
X221533466Y-73876897D01*
X221558452Y-73846452D01*
X221588897Y-73821466D01*
X221623633Y-73802899D01*
X221661326Y-73791465D01*
X221706661Y-73787000D01*
X222793339Y-73787000D01*
X222838674Y-73791465D01*
X222838674Y-73791465D01*
G37*
G36*
X251722000Y-74730000D02*
G01*
X243070000Y-74730000D01*
X243070000Y-73128000D01*
X251722000Y-73128000D01*
X251722000Y-74730000D01*
X251722000Y-74730000D01*
G37*
G36*
X235152564Y-69855389D02*
G01*
X235343833Y-69934615D01*
X235343835Y-69934616D01*
X235515973Y-70049635D01*
X235662365Y-70196027D01*
X235765841Y-70350889D01*
X235777385Y-70368167D01*
X235856611Y-70559436D01*
X235897000Y-70762484D01*
X235897000Y-70969516D01*
X235856611Y-71172564D01*
X235836653Y-71220746D01*
X235777384Y-71363835D01*
X235662365Y-71535973D01*
X235515973Y-71682365D01*
X235343835Y-71797384D01*
X235343834Y-71797385D01*
X235343833Y-71797385D01*
X235152564Y-71876611D01*
X234949516Y-71917000D01*
X234742484Y-71917000D01*
X234539436Y-71876611D01*
X234348167Y-71797385D01*
X234348166Y-71797385D01*
X234348165Y-71797384D01*
X234176027Y-71682365D01*
X234029635Y-71535973D01*
X233914616Y-71363835D01*
X233855347Y-71220746D01*
X233835389Y-71172564D01*
X233795000Y-70969516D01*
X233795000Y-70762484D01*
X233835389Y-70559436D01*
X233914615Y-70368167D01*
X233926160Y-70350889D01*
X234029635Y-70196027D01*
X234176027Y-70049635D01*
X234348165Y-69934616D01*
X234348167Y-69934615D01*
X234539436Y-69855389D01*
X234742484Y-69815000D01*
X234949516Y-69815000D01*
X235152564Y-69855389D01*
X235152564Y-69855389D01*
G37*
G36*
X228652564Y-69855389D02*
G01*
X228843833Y-69934615D01*
X228843835Y-69934616D01*
X229015973Y-70049635D01*
X229162365Y-70196027D01*
X229265841Y-70350889D01*
X229277385Y-70368167D01*
X229356611Y-70559436D01*
X229397000Y-70762484D01*
X229397000Y-70969516D01*
X229356611Y-71172564D01*
X229336653Y-71220746D01*
X229277384Y-71363835D01*
X229162365Y-71535973D01*
X229015973Y-71682365D01*
X228843835Y-71797384D01*
X228843834Y-71797385D01*
X228843833Y-71797385D01*
X228652564Y-71876611D01*
X228449516Y-71917000D01*
X228242484Y-71917000D01*
X228039436Y-71876611D01*
X227848167Y-71797385D01*
X227848166Y-71797385D01*
X227848165Y-71797384D01*
X227676027Y-71682365D01*
X227529635Y-71535973D01*
X227414616Y-71363835D01*
X227355347Y-71220746D01*
X227335389Y-71172564D01*
X227295000Y-70969516D01*
X227295000Y-70762484D01*
X227335389Y-70559436D01*
X227414615Y-70368167D01*
X227426160Y-70350889D01*
X227529635Y-70196027D01*
X227676027Y-70049635D01*
X227848165Y-69934616D01*
X227848167Y-69934615D01*
X228039436Y-69855389D01*
X228242484Y-69815000D01*
X228449516Y-69815000D01*
X228652564Y-69855389D01*
X228652564Y-69855389D01*
G37*
G36*
X239221674Y-70244465D02*
G01*
X239259367Y-70255899D01*
X239294103Y-70274466D01*
X239324548Y-70299452D01*
X239349534Y-70329897D01*
X239368101Y-70364633D01*
X239379535Y-70402326D01*
X239384000Y-70447661D01*
X239384000Y-71284339D01*
X239379535Y-71329674D01*
X239368101Y-71367367D01*
X239349534Y-71402103D01*
X239324548Y-71432548D01*
X239294103Y-71457534D01*
X239259367Y-71476101D01*
X239221674Y-71487535D01*
X239176339Y-71492000D01*
X238089661Y-71492000D01*
X238044326Y-71487535D01*
X238006633Y-71476101D01*
X237971897Y-71457534D01*
X237941452Y-71432548D01*
X237916466Y-71402103D01*
X237897899Y-71367367D01*
X237886465Y-71329674D01*
X237882000Y-71284339D01*
X237882000Y-70447661D01*
X237886465Y-70402326D01*
X237897899Y-70364633D01*
X237916466Y-70329897D01*
X237941452Y-70299452D01*
X237971897Y-70274466D01*
X238006633Y-70255899D01*
X238044326Y-70244465D01*
X238089661Y-70240000D01*
X239176339Y-70240000D01*
X239221674Y-70244465D01*
X239221674Y-70244465D01*
G37*
G36*
X270944630Y-66816026D02*
G01*
X271325343Y-66891754D01*
X271734999Y-67061439D01*
X272103679Y-67307784D01*
X272417216Y-67621321D01*
X272663561Y-67990001D01*
X272833246Y-68399657D01*
X272919750Y-68834546D01*
X272919750Y-69277954D01*
X272833246Y-69712843D01*
X272663561Y-70122499D01*
X272417216Y-70491179D01*
X272103679Y-70804716D01*
X271734999Y-71051061D01*
X271325343Y-71220746D01*
X270944630Y-71296474D01*
X270890455Y-71307250D01*
X270447045Y-71307250D01*
X270392870Y-71296474D01*
X270012157Y-71220746D01*
X269602501Y-71051061D01*
X269233821Y-70804716D01*
X268920284Y-70491179D01*
X268673939Y-70122499D01*
X268504254Y-69712843D01*
X268417750Y-69277954D01*
X268417750Y-68834546D01*
X268504254Y-68399657D01*
X268673939Y-67990001D01*
X268920284Y-67621321D01*
X269233821Y-67307784D01*
X269602501Y-67061439D01*
X270012157Y-66891754D01*
X270392870Y-66816026D01*
X270447045Y-66805250D01*
X270890455Y-66805250D01*
X270944630Y-66816026D01*
X270944630Y-66816026D01*
G37*
G36*
X206650880Y-66816026D02*
G01*
X207031593Y-66891754D01*
X207441249Y-67061439D01*
X207809929Y-67307784D01*
X208123466Y-67621321D01*
X208369811Y-67990001D01*
X208539496Y-68399657D01*
X208626000Y-68834546D01*
X208626000Y-69277954D01*
X208539496Y-69712843D01*
X208369811Y-70122499D01*
X208123466Y-70491179D01*
X207809929Y-70804716D01*
X207441249Y-71051061D01*
X207031593Y-71220746D01*
X206650880Y-71296474D01*
X206596705Y-71307250D01*
X206153295Y-71307250D01*
X206099120Y-71296474D01*
X205718407Y-71220746D01*
X205308751Y-71051061D01*
X204940071Y-70804716D01*
X204626534Y-70491179D01*
X204380189Y-70122499D01*
X204210504Y-69712843D01*
X204124000Y-69277954D01*
X204124000Y-68834546D01*
X204210504Y-68399657D01*
X204380189Y-67990001D01*
X204626534Y-67621321D01*
X204940071Y-67307784D01*
X205308751Y-67061439D01*
X205718407Y-66891754D01*
X206099120Y-66816026D01*
X206153295Y-66805250D01*
X206596705Y-66805250D01*
X206650880Y-66816026D01*
X206650880Y-66816026D01*
G37*
G36*
X225187627Y-68390037D02*
G01*
X225357466Y-68441557D01*
X225513991Y-68525222D01*
X225549729Y-68554552D01*
X225651186Y-68637814D01*
X225710395Y-68709962D01*
X225763778Y-68775009D01*
X225847443Y-68931534D01*
X225898963Y-69101373D01*
X225898963Y-69101375D01*
X225912000Y-69233740D01*
X225912000Y-70322260D01*
X225907479Y-70368165D01*
X225898963Y-70454627D01*
X225847443Y-70624466D01*
X225763778Y-70780991D01*
X225744307Y-70804716D01*
X225651186Y-70918186D01*
X225513989Y-71030779D01*
X225399752Y-71091840D01*
X225357465Y-71114443D01*
X225187626Y-71165963D01*
X225011000Y-71183359D01*
X224834373Y-71165963D01*
X224664534Y-71114443D01*
X224508009Y-71030778D01*
X224472271Y-71001448D01*
X224370814Y-70918186D01*
X224258221Y-70780989D01*
X224174558Y-70624467D01*
X224174409Y-70623976D01*
X224123037Y-70454626D01*
X224110000Y-70322257D01*
X224110001Y-69233742D01*
X224123038Y-69101373D01*
X224174558Y-68931534D01*
X224258223Y-68775009D01*
X224311606Y-68709962D01*
X224370815Y-68637814D01*
X224472272Y-68554552D01*
X224508010Y-68525222D01*
X224664535Y-68441557D01*
X224834374Y-68390037D01*
X225011000Y-68372641D01*
X225187627Y-68390037D01*
X225187627Y-68390037D01*
G37*
G36*
X217887627Y-68390037D02*
G01*
X218057466Y-68441557D01*
X218213991Y-68525222D01*
X218249729Y-68554552D01*
X218351186Y-68637814D01*
X218410395Y-68709962D01*
X218463778Y-68775009D01*
X218547443Y-68931534D01*
X218598963Y-69101373D01*
X218598963Y-69101375D01*
X218612000Y-69233740D01*
X218612000Y-70322260D01*
X218607479Y-70368165D01*
X218598963Y-70454627D01*
X218547443Y-70624466D01*
X218463778Y-70780991D01*
X218444307Y-70804716D01*
X218351186Y-70918186D01*
X218213989Y-71030779D01*
X218099752Y-71091840D01*
X218057465Y-71114443D01*
X217887626Y-71165963D01*
X217711000Y-71183359D01*
X217534373Y-71165963D01*
X217364534Y-71114443D01*
X217208009Y-71030778D01*
X217172271Y-71001448D01*
X217070814Y-70918186D01*
X216958221Y-70780989D01*
X216874558Y-70624467D01*
X216874409Y-70623976D01*
X216823037Y-70454626D01*
X216810000Y-70322257D01*
X216810001Y-69233742D01*
X216823038Y-69101373D01*
X216874558Y-68931534D01*
X216958223Y-68775009D01*
X217011606Y-68709962D01*
X217070815Y-68637814D01*
X217172272Y-68554552D01*
X217208010Y-68525222D01*
X217364535Y-68441557D01*
X217534374Y-68390037D01*
X217711000Y-68372641D01*
X217887627Y-68390037D01*
X217887627Y-68390037D01*
G37*
G36*
X223262000Y-70954000D02*
G01*
X219460000Y-70954000D01*
X219460000Y-68602000D01*
X223262000Y-68602000D01*
X223262000Y-70954000D01*
X223262000Y-70954000D01*
G37*
G36*
X246232000Y-70307000D02*
G01*
X244030000Y-70307000D01*
X244030000Y-68405000D01*
X246232000Y-68405000D01*
X246232000Y-70307000D01*
X246232000Y-70307000D01*
G37*
G36*
X249132000Y-70307000D02*
G01*
X246930000Y-70307000D01*
X246930000Y-68405000D01*
X249132000Y-68405000D01*
X249132000Y-70307000D01*
X249132000Y-70307000D01*
G37*
G36*
X254969674Y-68611465D02*
G01*
X255007367Y-68622899D01*
X255042103Y-68641466D01*
X255072548Y-68666452D01*
X255097534Y-68696897D01*
X255116101Y-68731633D01*
X255127535Y-68769326D01*
X255132000Y-68814661D01*
X255132000Y-69651339D01*
X255127535Y-69696674D01*
X255116101Y-69734367D01*
X255097534Y-69769103D01*
X255072548Y-69799548D01*
X255042103Y-69824534D01*
X255007367Y-69843101D01*
X254969674Y-69854535D01*
X254924339Y-69859000D01*
X253837661Y-69859000D01*
X253792326Y-69854535D01*
X253754633Y-69843101D01*
X253719897Y-69824534D01*
X253689452Y-69799548D01*
X253664466Y-69769103D01*
X253645899Y-69734367D01*
X253634465Y-69696674D01*
X253630000Y-69651339D01*
X253630000Y-68814661D01*
X253634465Y-68769326D01*
X253645899Y-68731633D01*
X253664466Y-68696897D01*
X253689452Y-68666452D01*
X253719897Y-68641466D01*
X253754633Y-68622899D01*
X253792326Y-68611465D01*
X253837661Y-68607000D01*
X254924339Y-68607000D01*
X254969674Y-68611465D01*
X254969674Y-68611465D01*
G37*
G36*
X251540674Y-68593465D02*
G01*
X251578367Y-68604899D01*
X251613103Y-68623466D01*
X251643548Y-68648452D01*
X251668534Y-68678897D01*
X251687101Y-68713633D01*
X251698535Y-68751326D01*
X251703000Y-68796661D01*
X251703000Y-69633339D01*
X251698535Y-69678674D01*
X251687101Y-69716367D01*
X251668534Y-69751103D01*
X251643548Y-69781548D01*
X251613103Y-69806534D01*
X251578367Y-69825101D01*
X251540674Y-69836535D01*
X251495339Y-69841000D01*
X250408661Y-69841000D01*
X250363326Y-69836535D01*
X250325633Y-69825101D01*
X250290897Y-69806534D01*
X250260452Y-69781548D01*
X250235466Y-69751103D01*
X250216899Y-69716367D01*
X250205465Y-69678674D01*
X250201000Y-69633339D01*
X250201000Y-68796661D01*
X250205465Y-68751326D01*
X250216899Y-68713633D01*
X250235466Y-68678897D01*
X250260452Y-68648452D01*
X250290897Y-68623466D01*
X250325633Y-68604899D01*
X250363326Y-68593465D01*
X250408661Y-68589000D01*
X251495339Y-68589000D01*
X251540674Y-68593465D01*
X251540674Y-68593465D01*
G37*
G36*
X242904674Y-68593465D02*
G01*
X242942367Y-68604899D01*
X242977103Y-68623466D01*
X243007548Y-68648452D01*
X243032534Y-68678897D01*
X243051101Y-68713633D01*
X243062535Y-68751326D01*
X243067000Y-68796661D01*
X243067000Y-69633339D01*
X243062535Y-69678674D01*
X243051101Y-69716367D01*
X243032534Y-69751103D01*
X243007548Y-69781548D01*
X242977103Y-69806534D01*
X242942367Y-69825101D01*
X242904674Y-69836535D01*
X242859339Y-69841000D01*
X241772661Y-69841000D01*
X241727326Y-69836535D01*
X241689633Y-69825101D01*
X241654897Y-69806534D01*
X241624452Y-69781548D01*
X241599466Y-69751103D01*
X241580899Y-69716367D01*
X241569465Y-69678674D01*
X241565000Y-69633339D01*
X241565000Y-68796661D01*
X241569465Y-68751326D01*
X241580899Y-68713633D01*
X241599466Y-68678897D01*
X241624452Y-68648452D01*
X241654897Y-68623466D01*
X241689633Y-68604899D01*
X241727326Y-68593465D01*
X241772661Y-68589000D01*
X242859339Y-68589000D01*
X242904674Y-68593465D01*
X242904674Y-68593465D01*
G37*
G36*
X239221674Y-68194465D02*
G01*
X239259367Y-68205899D01*
X239294103Y-68224466D01*
X239324548Y-68249452D01*
X239349534Y-68279897D01*
X239368101Y-68314633D01*
X239379535Y-68352326D01*
X239384000Y-68397661D01*
X239384000Y-69234339D01*
X239379535Y-69279674D01*
X239368101Y-69317367D01*
X239349534Y-69352103D01*
X239324548Y-69382548D01*
X239294103Y-69407534D01*
X239259367Y-69426101D01*
X239221674Y-69437535D01*
X239176339Y-69442000D01*
X238089661Y-69442000D01*
X238044326Y-69437535D01*
X238006633Y-69426101D01*
X237971897Y-69407534D01*
X237941452Y-69382548D01*
X237916466Y-69352103D01*
X237897899Y-69317367D01*
X237886465Y-69279674D01*
X237882000Y-69234339D01*
X237882000Y-68397661D01*
X237886465Y-68352326D01*
X237897899Y-68314633D01*
X237916466Y-68279897D01*
X237941452Y-68249452D01*
X237971897Y-68224466D01*
X238006633Y-68205899D01*
X238044326Y-68194465D01*
X238089661Y-68190000D01*
X239176339Y-68190000D01*
X239221674Y-68194465D01*
X239221674Y-68194465D01*
G37*
G36*
X249132000Y-68007000D02*
G01*
X246930000Y-68007000D01*
X246930000Y-66105000D01*
X249132000Y-66105000D01*
X249132000Y-68007000D01*
X249132000Y-68007000D01*
G37*
G36*
X246232000Y-68007000D02*
G01*
X244030000Y-68007000D01*
X244030000Y-66105000D01*
X246232000Y-66105000D01*
X246232000Y-68007000D01*
X246232000Y-68007000D01*
G37*
G36*
X254969674Y-66561465D02*
G01*
X255007367Y-66572899D01*
X255042103Y-66591466D01*
X255072548Y-66616452D01*
X255097534Y-66646897D01*
X255116101Y-66681633D01*
X255127535Y-66719326D01*
X255132000Y-66764661D01*
X255132000Y-67601339D01*
X255127535Y-67646674D01*
X255116101Y-67684367D01*
X255097534Y-67719103D01*
X255072548Y-67749548D01*
X255042103Y-67774534D01*
X255007367Y-67793101D01*
X254969674Y-67804535D01*
X254924339Y-67809000D01*
X253837661Y-67809000D01*
X253792326Y-67804535D01*
X253754633Y-67793101D01*
X253719897Y-67774534D01*
X253689452Y-67749548D01*
X253664466Y-67719103D01*
X253645899Y-67684367D01*
X253634465Y-67646674D01*
X253630000Y-67601339D01*
X253630000Y-66764661D01*
X253634465Y-66719326D01*
X253645899Y-66681633D01*
X253664466Y-66646897D01*
X253689452Y-66616452D01*
X253719897Y-66591466D01*
X253754633Y-66572899D01*
X253792326Y-66561465D01*
X253837661Y-66557000D01*
X254924339Y-66557000D01*
X254969674Y-66561465D01*
X254969674Y-66561465D01*
G37*
G36*
X251540674Y-66543465D02*
G01*
X251578367Y-66554899D01*
X251613103Y-66573466D01*
X251643548Y-66598452D01*
X251668534Y-66628897D01*
X251687101Y-66663633D01*
X251698535Y-66701326D01*
X251703000Y-66746661D01*
X251703000Y-67583339D01*
X251698535Y-67628674D01*
X251687101Y-67666367D01*
X251668534Y-67701103D01*
X251643548Y-67731548D01*
X251613103Y-67756534D01*
X251578367Y-67775101D01*
X251540674Y-67786535D01*
X251495339Y-67791000D01*
X250408661Y-67791000D01*
X250363326Y-67786535D01*
X250325633Y-67775101D01*
X250290897Y-67756534D01*
X250260452Y-67731548D01*
X250235466Y-67701103D01*
X250216899Y-67666367D01*
X250205465Y-67628674D01*
X250201000Y-67583339D01*
X250201000Y-66746661D01*
X250205465Y-66701326D01*
X250216899Y-66663633D01*
X250235466Y-66628897D01*
X250260452Y-66598452D01*
X250290897Y-66573466D01*
X250325633Y-66554899D01*
X250363326Y-66543465D01*
X250408661Y-66539000D01*
X251495339Y-66539000D01*
X251540674Y-66543465D01*
X251540674Y-66543465D01*
G37*
G36*
X242904674Y-66543465D02*
G01*
X242942367Y-66554899D01*
X242977103Y-66573466D01*
X243007548Y-66598452D01*
X243032534Y-66628897D01*
X243051101Y-66663633D01*
X243062535Y-66701326D01*
X243067000Y-66746661D01*
X243067000Y-67583339D01*
X243062535Y-67628674D01*
X243051101Y-67666367D01*
X243032534Y-67701103D01*
X243007548Y-67731548D01*
X242977103Y-67756534D01*
X242942367Y-67775101D01*
X242904674Y-67786535D01*
X242859339Y-67791000D01*
X241772661Y-67791000D01*
X241727326Y-67786535D01*
X241689633Y-67775101D01*
X241654897Y-67756534D01*
X241624452Y-67731548D01*
X241599466Y-67701103D01*
X241580899Y-67666367D01*
X241569465Y-67628674D01*
X241565000Y-67583339D01*
X241565000Y-66746661D01*
X241569465Y-66701326D01*
X241580899Y-66663633D01*
X241599466Y-66628897D01*
X241624452Y-66598452D01*
X241654897Y-66573466D01*
X241689633Y-66554899D01*
X241727326Y-66543465D01*
X241772661Y-66539000D01*
X242859339Y-66539000D01*
X242904674Y-66543465D01*
X242904674Y-66543465D01*
G37*
G36*
X228652564Y-65355389D02*
G01*
X228843833Y-65434615D01*
X228843835Y-65434616D01*
X229015973Y-65549635D01*
X229162365Y-65696027D01*
X229246711Y-65822259D01*
X229277385Y-65868167D01*
X229356611Y-66059436D01*
X229397000Y-66262484D01*
X229397000Y-66469516D01*
X229356611Y-66672564D01*
X229277385Y-66863833D01*
X229277384Y-66863835D01*
X229162365Y-67035973D01*
X229015973Y-67182365D01*
X228843835Y-67297384D01*
X228843834Y-67297385D01*
X228843833Y-67297385D01*
X228652564Y-67376611D01*
X228449516Y-67417000D01*
X228242484Y-67417000D01*
X228039436Y-67376611D01*
X227848167Y-67297385D01*
X227848166Y-67297385D01*
X227848165Y-67297384D01*
X227676027Y-67182365D01*
X227529635Y-67035973D01*
X227414616Y-66863835D01*
X227414615Y-66863833D01*
X227335389Y-66672564D01*
X227295000Y-66469516D01*
X227295000Y-66262484D01*
X227335389Y-66059436D01*
X227414615Y-65868167D01*
X227445290Y-65822259D01*
X227529635Y-65696027D01*
X227676027Y-65549635D01*
X227848165Y-65434616D01*
X227848167Y-65434615D01*
X228039436Y-65355389D01*
X228242484Y-65315000D01*
X228449516Y-65315000D01*
X228652564Y-65355389D01*
X228652564Y-65355389D01*
G37*
G36*
X235152564Y-65355389D02*
G01*
X235343833Y-65434615D01*
X235343835Y-65434616D01*
X235515973Y-65549635D01*
X235662365Y-65696027D01*
X235746711Y-65822259D01*
X235777385Y-65868167D01*
X235856611Y-66059436D01*
X235897000Y-66262484D01*
X235897000Y-66469516D01*
X235856611Y-66672564D01*
X235777385Y-66863833D01*
X235777384Y-66863835D01*
X235662365Y-67035973D01*
X235515973Y-67182365D01*
X235343835Y-67297384D01*
X235343834Y-67297385D01*
X235343833Y-67297385D01*
X235152564Y-67376611D01*
X234949516Y-67417000D01*
X234742484Y-67417000D01*
X234539436Y-67376611D01*
X234348167Y-67297385D01*
X234348166Y-67297385D01*
X234348165Y-67297384D01*
X234176027Y-67182365D01*
X234029635Y-67035973D01*
X233914616Y-66863835D01*
X233914615Y-66863833D01*
X233835389Y-66672564D01*
X233795000Y-66469516D01*
X233795000Y-66262484D01*
X233835389Y-66059436D01*
X233914615Y-65868167D01*
X233945290Y-65822259D01*
X234029635Y-65696027D01*
X234176027Y-65549635D01*
X234348165Y-65434616D01*
X234348167Y-65434615D01*
X234539436Y-65355389D01*
X234742484Y-65315000D01*
X234949516Y-65315000D01*
X235152564Y-65355389D01*
X235152564Y-65355389D01*
G37*
G36*
X225187627Y-63890037D02*
G01*
X225357466Y-63941557D01*
X225513991Y-64025222D01*
X225549729Y-64054552D01*
X225651186Y-64137814D01*
X225734448Y-64239271D01*
X225763778Y-64275009D01*
X225847443Y-64431534D01*
X225898963Y-64601373D01*
X225912000Y-64733742D01*
X225912000Y-65822258D01*
X225898963Y-65954627D01*
X225847443Y-66124466D01*
X225763778Y-66280991D01*
X225734448Y-66316729D01*
X225651186Y-66418186D01*
X225513989Y-66530779D01*
X225412794Y-66584869D01*
X225357465Y-66614443D01*
X225187626Y-66665963D01*
X225011000Y-66683359D01*
X224834373Y-66665963D01*
X224664534Y-66614443D01*
X224508009Y-66530778D01*
X224472271Y-66501448D01*
X224370814Y-66418186D01*
X224258221Y-66280989D01*
X224174558Y-66124467D01*
X224174557Y-66124465D01*
X224123037Y-65954626D01*
X224110000Y-65822257D01*
X224110001Y-64733742D01*
X224123038Y-64601373D01*
X224174558Y-64431534D01*
X224258223Y-64275009D01*
X224287553Y-64239271D01*
X224370815Y-64137814D01*
X224472272Y-64054552D01*
X224508010Y-64025222D01*
X224664535Y-63941557D01*
X224834374Y-63890037D01*
X225011000Y-63872641D01*
X225187627Y-63890037D01*
X225187627Y-63890037D01*
G37*
G36*
X217887627Y-63890037D02*
G01*
X218057466Y-63941557D01*
X218213991Y-64025222D01*
X218249729Y-64054552D01*
X218351186Y-64137814D01*
X218434448Y-64239271D01*
X218463778Y-64275009D01*
X218547443Y-64431534D01*
X218598963Y-64601373D01*
X218612000Y-64733742D01*
X218612000Y-65822258D01*
X218598963Y-65954627D01*
X218547443Y-66124466D01*
X218463778Y-66280991D01*
X218434448Y-66316729D01*
X218351186Y-66418186D01*
X218213989Y-66530779D01*
X218112794Y-66584869D01*
X218057465Y-66614443D01*
X217887626Y-66665963D01*
X217711000Y-66683359D01*
X217534373Y-66665963D01*
X217364534Y-66614443D01*
X217208009Y-66530778D01*
X217172271Y-66501448D01*
X217070814Y-66418186D01*
X216958221Y-66280989D01*
X216874558Y-66124467D01*
X216874557Y-66124465D01*
X216823037Y-65954626D01*
X216810000Y-65822257D01*
X216810001Y-64733742D01*
X216823038Y-64601373D01*
X216874558Y-64431534D01*
X216958223Y-64275009D01*
X216987553Y-64239271D01*
X217070815Y-64137814D01*
X217172272Y-64054552D01*
X217208010Y-64025222D01*
X217364535Y-63941557D01*
X217534374Y-63890037D01*
X217711000Y-63872641D01*
X217887627Y-63890037D01*
X217887627Y-63890037D01*
G37*
M02*
