G04 #@! TF.GenerationSoftware,KiCad,Pcbnew,(5.1.4)-1*
G04 #@! TF.CreationDate,2019-10-28T00:02:14+02:00*
G04 #@! TF.ProjectId,Macroboard,4d616372-6f62-46f6-9172-642e6b696361,rev?*
G04 #@! TF.SameCoordinates,Original*
G04 #@! TF.FileFunction,Copper,L1,Top*
G04 #@! TF.FilePolarity,Positive*
%FSLAX46Y46*%
G04 Gerber Fmt 4.6, Leading zero omitted, Abs format (unit mm)*
G04 Created by KiCad (PCBNEW (5.1.4)-1) date 2019-10-28 00:02:14*
%MOMM*%
%LPD*%
G04 APERTURE LIST*
%ADD10C,2.000000*%
%ADD11R,1.905000X1.905000*%
%ADD12C,1.905000*%
%ADD13C,2.250000*%
%ADD14C,4.400000*%
%ADD15C,0.700000*%
%ADD16O,1.700000X2.700000*%
%ADD17C,0.800000*%
%ADD18C,0.381000*%
%ADD19C,0.254000*%
G04 APERTURE END LIST*
D10*
X234846000Y-70866000D03*
X234846000Y-66366000D03*
X228346000Y-70866000D03*
X228346000Y-66366000D03*
D11*
X220345000Y-140811250D03*
D12*
X217805000Y-140811250D03*
D13*
X215265000Y-133191250D03*
X221615000Y-130651250D03*
D11*
X258445000Y-140811250D03*
D12*
X255905000Y-140811250D03*
D13*
X253365000Y-133191250D03*
X259715000Y-130651250D03*
D11*
X239395000Y-140811250D03*
D12*
X236855000Y-140811250D03*
D13*
X234315000Y-133191250D03*
X240665000Y-130651250D03*
D11*
X258445000Y-121761250D03*
D12*
X255905000Y-121761250D03*
D13*
X253365000Y-114141250D03*
X259715000Y-111601250D03*
D11*
X239395000Y-121761250D03*
D12*
X236855000Y-121761250D03*
D13*
X234315000Y-114141250D03*
X240665000Y-111601250D03*
D11*
X220345000Y-121761250D03*
D12*
X217805000Y-121761250D03*
D13*
X215265000Y-114141250D03*
X221615000Y-111601250D03*
D11*
X258445000Y-102711250D03*
D12*
X255905000Y-102711250D03*
D13*
X253365000Y-95091250D03*
X259715000Y-92551250D03*
D11*
X239395000Y-102711250D03*
D12*
X236855000Y-102711250D03*
D13*
X234315000Y-95091250D03*
X240665000Y-92551250D03*
D11*
X220345000Y-102711250D03*
D12*
X217805000Y-102711250D03*
D13*
X215265000Y-95091250D03*
X221615000Y-92551250D03*
D14*
X270668750Y-69056250D03*
D15*
X272318750Y-69056250D03*
X271835476Y-70222976D03*
X270668750Y-70706250D03*
X269502024Y-70222976D03*
X269018750Y-69056250D03*
X269502024Y-67889524D03*
X270668750Y-67406250D03*
X271835476Y-67889524D03*
D14*
X206375000Y-69056250D03*
D15*
X208025000Y-69056250D03*
X207541726Y-70222976D03*
X206375000Y-70706250D03*
X205208274Y-70222976D03*
X204725000Y-69056250D03*
X205208274Y-67889524D03*
X206375000Y-67406250D03*
X207541726Y-67889524D03*
D14*
X204787500Y-142875000D03*
D15*
X206437500Y-142875000D03*
X205954226Y-144041726D03*
X204787500Y-144525000D03*
X203620774Y-144041726D03*
X203137500Y-142875000D03*
X203620774Y-141708274D03*
X204787500Y-141225000D03*
X205954226Y-141708274D03*
D14*
X271462500Y-142875000D03*
D15*
X273112500Y-142875000D03*
X272629226Y-144041726D03*
X271462500Y-144525000D03*
X270295774Y-144041726D03*
X269812500Y-142875000D03*
X270295774Y-141708274D03*
X271462500Y-141225000D03*
X272629226Y-141708274D03*
D16*
X217711000Y-65278000D03*
X225011000Y-65278000D03*
X225011000Y-69778000D03*
X217711000Y-69778000D03*
D17*
X243332000Y-87122000D03*
X251587000Y-86995000D03*
X254889000Y-76454000D03*
X239903000Y-82931000D03*
X244983000Y-72136000D03*
X254889000Y-80010000D03*
X238379000Y-80899000D03*
X239903000Y-78232000D03*
X240855500Y-73596500D03*
X252095000Y-72136000D03*
X265112500Y-127000000D03*
X268287500Y-127000000D03*
X265112500Y-107950000D03*
X268287500Y-107950000D03*
X210343750Y-100012500D03*
X212725000Y-100012500D03*
X211137500Y-119856250D03*
X212725000Y-119856250D03*
X232568750Y-103187500D03*
X232568750Y-106362500D03*
X251618750Y-103187500D03*
X251618750Y-106362500D03*
X232568750Y-125412500D03*
X232568750Y-122237500D03*
X251618750Y-122237500D03*
X251618750Y-125412500D03*
X232568750Y-144462500D03*
X232568750Y-141287500D03*
X251618750Y-144462500D03*
X251618750Y-141287500D03*
D18*
X242766315Y-87122000D02*
X239903000Y-84258685D01*
X243332000Y-87122000D02*
X242766315Y-87122000D01*
X252095000Y-72136000D02*
X254889000Y-74930000D01*
X254889000Y-85344000D02*
X253238000Y-86995000D01*
X253238000Y-86995000D02*
X251587000Y-86995000D01*
X254889000Y-74930000D02*
X254889000Y-76454000D01*
X239903000Y-84258685D02*
X239903000Y-82931000D01*
X242316000Y-72136000D02*
X244983000Y-72136000D01*
X244983000Y-72136000D02*
X252095000Y-72136000D01*
X254889000Y-76454000D02*
X254889000Y-80010000D01*
X254889000Y-80010000D02*
X254889000Y-85344000D01*
X238944685Y-80899000D02*
X239903000Y-80899000D01*
X238379000Y-80899000D02*
X238944685Y-80899000D01*
X239903000Y-82931000D02*
X239903000Y-80899000D01*
X239903000Y-80899000D02*
X239903000Y-78232000D01*
X239903000Y-78232000D02*
X239903000Y-74549000D01*
X239903000Y-74549000D02*
X240855500Y-73596500D01*
X240855500Y-73596500D02*
X242316000Y-72136000D01*
X265112500Y-127000000D02*
X268287500Y-127000000D01*
X265112500Y-107950000D02*
X268287500Y-107950000D01*
D19*
X210343750Y-100012500D02*
X212725000Y-100012500D01*
X211137500Y-119856250D02*
X212725000Y-119856250D01*
X215265000Y-131600260D02*
X215265000Y-114141250D01*
X215265000Y-133191250D02*
X215265000Y-131600260D01*
X215265000Y-114141250D02*
X215265000Y-112550260D01*
X215265000Y-112550260D02*
X215265000Y-95091250D01*
X234442000Y-132489260D02*
X234442000Y-115030250D01*
X234315000Y-113312260D02*
X234315000Y-95853250D01*
X253492000Y-113312260D02*
X253492000Y-95853250D01*
X253492000Y-132489260D02*
X253492000Y-115030250D01*
X232568750Y-103187500D02*
X232568750Y-106362500D01*
X251618750Y-103187500D02*
X251618750Y-105568750D01*
X251618750Y-105568750D02*
X251618750Y-106362500D01*
X232568750Y-124618750D02*
X232568750Y-125412500D01*
X232568750Y-122237500D02*
X232568750Y-124618750D01*
X251618750Y-124618750D02*
X251618750Y-125412500D01*
X251618750Y-122237500D02*
X251618750Y-124618750D01*
X232568750Y-141287500D02*
X232568750Y-143668750D01*
X232568750Y-143668750D02*
X232568750Y-144462500D01*
X251618750Y-141287500D02*
X251618750Y-143668750D01*
X251618750Y-143668750D02*
X251618750Y-144462500D01*
M02*
