M48
; DRILL file {KiCad (5.1.4)-1} date 10/28/19 00:07:08
; FORMAT={-:-/ absolute / metric / decimal}
; #@! TF.CreationDate,2019-10-28T00:07:08+02:00
; #@! TF.GenerationSoftware,Kicad,Pcbnew,(5.1.4)-1
; #@! TF.FileFunction,Plated,1,2,PTH
FMAT,2
METRIC
T1C0.400
T2C0.700
T3C1.040
T4C1.100
T5C1.470
T6C2.200
%
G90
G05
T1
X210.344Y-100.012
X211.137Y-119.856
X212.725Y-100.012
X212.725Y-119.856
X232.569Y-103.188
X232.569Y-106.362
X232.569Y-122.237
X232.569Y-125.412
X232.569Y-141.287
X232.569Y-144.463
X238.379Y-80.899
X239.903Y-78.232
X239.903Y-82.931
X240.855Y-73.596
X243.332Y-87.122
X244.983Y-72.136
X251.587Y-86.995
X251.619Y-103.188
X251.619Y-106.362
X251.619Y-122.237
X251.619Y-125.412
X251.619Y-141.287
X251.619Y-144.463
X252.095Y-72.136
X254.889Y-76.454
X254.889Y-80.01
X265.113Y-107.95
X265.113Y-127.0
X268.287Y-107.95
X268.287Y-127.0
X203.137Y-142.875
X203.621Y-141.708
X203.621Y-144.042
X204.787Y-141.225
X204.787Y-144.525
X205.954Y-141.708
X205.954Y-144.042
X206.438Y-142.875
X269.019Y-69.056
X269.502Y-67.89
X269.502Y-70.223
X270.669Y-67.406
X270.669Y-70.706
X271.835Y-67.89
X271.835Y-70.223
X272.319Y-69.056
X269.812Y-142.875
X270.296Y-141.708
X270.296Y-144.042
X271.462Y-141.225
X271.462Y-144.525
X272.629Y-141.708
X272.629Y-144.042
X273.113Y-142.875
X204.725Y-69.056
X205.208Y-67.89
X205.208Y-70.223
X206.375Y-67.406
X206.375Y-70.706
X207.542Y-67.89
X207.542Y-70.223
X208.025Y-69.056
T3
X255.905Y-140.811
X258.445Y-140.811
X217.805Y-102.711
X220.345Y-102.711
X236.855Y-121.761
X239.395Y-121.761
X217.805Y-121.761
X220.345Y-121.761
X236.855Y-140.811
X239.395Y-140.811
X217.805Y-140.811
X220.345Y-140.811
X255.905Y-102.711
X258.445Y-102.711
X236.855Y-102.711
X239.395Y-102.711
X255.905Y-121.761
X258.445Y-121.761
T4
X228.346Y-66.366
X228.346Y-70.866
X234.846Y-66.366
X234.846Y-70.866
T5
X215.265Y-114.141
X221.615Y-111.601
X234.315Y-133.191
X240.665Y-130.651
X215.265Y-133.191
X221.615Y-130.651
X253.365Y-95.091
X259.715Y-92.551
X234.315Y-95.091
X240.665Y-92.551
X253.365Y-114.141
X259.715Y-111.601
X253.365Y-133.191
X259.715Y-130.651
X215.265Y-95.091
X221.615Y-92.551
X234.315Y-114.141
X240.665Y-111.601
T6
X204.787Y-142.875
X270.669Y-69.056
X271.462Y-142.875
X206.375Y-69.056
T2
G00X217.711Y-64.678
M15
G01X217.711Y-65.878
M16
G05
G00X217.711Y-69.178
M15
G01X217.711Y-70.378
M16
G05
G00X225.011Y-64.678
M15
G01X225.011Y-65.878
M16
G05
G00X225.011Y-69.178
M15
G01X225.011Y-70.378
M16
G05
T0
M30
