M48
; DRILL file {KiCad (5.1.4)-1} date 10/28/19 00:07:08
; FORMAT={-:-/ absolute / metric / decimal}
; #@! TF.CreationDate,2019-10-28T00:07:08+02:00
; #@! TF.GenerationSoftware,Kicad,Pcbnew,(5.1.4)-1
; #@! TF.FileFunction,NonPlated,1,2,NPTH
FMAT,2
METRIC
T1C1.750
T2C3.988
%
G90
G05
T1
X252.095Y-116.681
X252.095Y-135.731
X262.255Y-135.731
X213.995Y-97.631
X224.155Y-97.631
X233.045Y-116.681
X243.205Y-116.681
X213.995Y-116.681
X224.155Y-116.681
X233.045Y-135.731
X243.205Y-135.731
X213.995Y-135.731
X224.155Y-135.731
X252.095Y-97.631
X262.255Y-97.631
X233.045Y-97.631
X243.205Y-97.631
X262.255Y-116.681
T2
X257.175Y-116.681
X257.175Y-135.731
X238.125Y-116.681
X219.075Y-116.681
X238.125Y-135.731
X219.075Y-135.731
X257.175Y-97.631
X238.125Y-97.631
X219.075Y-97.631
T0
M30
