G04 #@! TF.GenerationSoftware,KiCad,Pcbnew,(5.1.4)-1*
G04 #@! TF.CreationDate,2019-10-28T00:07:01+02:00*
G04 #@! TF.ProjectId,Macroboard,4d616372-6f62-46f6-9172-642e6b696361,rev?*
G04 #@! TF.SameCoordinates,Original*
G04 #@! TF.FileFunction,Legend,Top*
G04 #@! TF.FilePolarity,Positive*
%FSLAX46Y46*%
G04 Gerber Fmt 4.6, Leading zero omitted, Abs format (unit mm)*
G04 Created by KiCad (PCBNEW (5.1.4)-1) date 2019-10-28 00:07:01*
%MOMM*%
%LPD*%
G04 APERTURE LIST*
%ADD10C,0.150000*%
%ADD11C,2.102000*%
%ADD12C,1.852000*%
%ADD13C,4.089800*%
%ADD14C,4.502000*%
%ADD15C,0.802000*%
%ADD16O,1.802000X2.802000*%
G04 APERTURE END LIST*
D10*
X269906845Y-66308630D02*
X269906845Y-65308630D01*
X269906845Y-65784821D02*
X270478273Y-65784821D01*
X270478273Y-66308630D02*
X270478273Y-65308630D01*
X271383035Y-65641964D02*
X271383035Y-66308630D01*
X271144940Y-65261011D02*
X270906845Y-65975297D01*
X271525892Y-65975297D01*
X205613095Y-66308630D02*
X205613095Y-65308630D01*
X205613095Y-65784821D02*
X206184523Y-65784821D01*
X206184523Y-66308630D02*
X206184523Y-65308630D01*
X206565476Y-65308630D02*
X207184523Y-65308630D01*
X206851190Y-65689583D01*
X206994047Y-65689583D01*
X207089285Y-65737202D01*
X207136904Y-65784821D01*
X207184523Y-65880059D01*
X207184523Y-66118154D01*
X207136904Y-66213392D01*
X207089285Y-66261011D01*
X206994047Y-66308630D01*
X206708333Y-66308630D01*
X206613095Y-66261011D01*
X206565476Y-66213392D01*
X204025595Y-140127380D02*
X204025595Y-139127380D01*
X204025595Y-139603571D02*
X204597023Y-139603571D01*
X204597023Y-140127380D02*
X204597023Y-139127380D01*
X205025595Y-139222619D02*
X205073214Y-139175000D01*
X205168452Y-139127380D01*
X205406547Y-139127380D01*
X205501785Y-139175000D01*
X205549404Y-139222619D01*
X205597023Y-139317857D01*
X205597023Y-139413095D01*
X205549404Y-139555952D01*
X204977976Y-140127380D01*
X205597023Y-140127380D01*
X270700595Y-140127380D02*
X270700595Y-139127380D01*
X270700595Y-139603571D02*
X271272023Y-139603571D01*
X271272023Y-140127380D02*
X271272023Y-139127380D01*
X272272023Y-140127380D02*
X271700595Y-140127380D01*
X271986309Y-140127380D02*
X271986309Y-139127380D01*
X271891071Y-139270238D01*
X271795833Y-139365476D01*
X271700595Y-139413095D01*
%LPC*%
D11*
X234846000Y-70866000D03*
X234846000Y-66366000D03*
X228346000Y-70866000D03*
X228346000Y-66366000D03*
D12*
X224155000Y-135731250D03*
X213995000Y-135731250D03*
D13*
X219075000Y-135731250D03*
D12*
X262255000Y-135731250D03*
X252095000Y-135731250D03*
D13*
X257175000Y-135731250D03*
D12*
X243205000Y-135731250D03*
X233045000Y-135731250D03*
D13*
X238125000Y-135731250D03*
D12*
X262255000Y-116681250D03*
X252095000Y-116681250D03*
D13*
X257175000Y-116681250D03*
D12*
X243205000Y-116681250D03*
X233045000Y-116681250D03*
D13*
X238125000Y-116681250D03*
D12*
X224155000Y-116681250D03*
X213995000Y-116681250D03*
D13*
X219075000Y-116681250D03*
D12*
X262255000Y-97631250D03*
X252095000Y-97631250D03*
D13*
X257175000Y-97631250D03*
D12*
X243205000Y-97631250D03*
X233045000Y-97631250D03*
D13*
X238125000Y-97631250D03*
D12*
X224155000Y-97631250D03*
X213995000Y-97631250D03*
D13*
X219075000Y-97631250D03*
D14*
X270668750Y-69056250D03*
D15*
X272318750Y-69056250D03*
X271835476Y-70222976D03*
X270668750Y-70706250D03*
X269502024Y-70222976D03*
X269018750Y-69056250D03*
X269502024Y-67889524D03*
X270668750Y-67406250D03*
X271835476Y-67889524D03*
D14*
X206375000Y-69056250D03*
D15*
X208025000Y-69056250D03*
X207541726Y-70222976D03*
X206375000Y-70706250D03*
X205208274Y-70222976D03*
X204725000Y-69056250D03*
X205208274Y-67889524D03*
X206375000Y-67406250D03*
X207541726Y-67889524D03*
D14*
X204787500Y-142875000D03*
D15*
X206437500Y-142875000D03*
X205954226Y-144041726D03*
X204787500Y-144525000D03*
X203620774Y-144041726D03*
X203137500Y-142875000D03*
X203620774Y-141708274D03*
X204787500Y-141225000D03*
X205954226Y-141708274D03*
D14*
X271462500Y-142875000D03*
D15*
X273112500Y-142875000D03*
X272629226Y-144041726D03*
X271462500Y-144525000D03*
X270295774Y-144041726D03*
X269812500Y-142875000D03*
X270295774Y-141708274D03*
X271462500Y-141225000D03*
X272629226Y-141708274D03*
D16*
X217711000Y-65278000D03*
X225011000Y-65278000D03*
X225011000Y-69778000D03*
X217711000Y-69778000D03*
M02*
